ISO-10303-21;
HEADER;
/* Generated by software containing ST-Developer
 * from STEP Tools, Inc. (www.steptools.com) 
 */
/* OPTION: using custom renumber hook */

FILE_DESCRIPTION(
/* description */ ('STEP AP214',
'CAx-IF Rec.Pracs.---User Defined Attributes---1.5---2016-08-15'),
/* implementation_level */ '2;1');

FILE_NAME(
/* name */ '6a78a5c833a157fb62ad3ed0',
/* time_stamp */ '2026-08-09T16:07:37Z',
/* author */ (''),
/* organization */ (''),
/* preprocessor_version */ 'ST-DEVELOPER v20',
/* originating_system */ 'ONSHAPE BY PTC INC, 1.219',
/* authorisation */ '  ');

FILE_SCHEMA (('AUTOMOTIVE_DESIGN {1 0 10303 214 3 1 1}'));
ENDSEC;

DATA;
#10=PROPERTY_DEFINITION_REPRESENTATION(#14,#12);
#11=PROPERTY_DEFINITION_REPRESENTATION(#15,#13);
#12=REPRESENTATION('',(#16),#1083);
#13=REPRESENTATION('',(#17),#1083);
#14=PROPERTY_DEFINITION('pmi validation property','',#1088);
#15=PROPERTY_DEFINITION('pmi validation property','',#1088);
#16=VALUE_REPRESENTATION_ITEM('number of annotations',COUNT_MEASURE(0.));
#17=VALUE_REPRESENTATION_ITEM('number of views',COUNT_MEASURE(0.));
#18=SHAPE_REPRESENTATION_RELATIONSHIP('','',#288,#19);
#19=ADVANCED_BREP_SHAPE_REPRESENTATION('',(#286),#1083);
#20=CYLINDRICAL_SURFACE('',#298,0.001);
#21=CYLINDRICAL_SURFACE('',#305,0.003);
#22=CIRCLE('',#291,0.004);
#23=CIRCLE('',#292,0.004);
#24=CIRCLE('',#293,0.004);
#25=CIRCLE('',#294,0.004);
#26=CIRCLE('',#295,0.004);
#27=CIRCLE('',#297,0.001);
#28=CIRCLE('',#299,0.001);
#29=CIRCLE('',#302,0.003);
#30=CIRCLE('',#304,0.003);
#31=B_SPLINE_SURFACE_WITH_KNOTS('',3,3,((#382,#383,#384,#385,#386,#387,
#388,#389),(#390,#391,#392,#393,#394,#395,#396,#397),(#398,#399,#400,#401,
#402,#403,#404,#405),(#406,#407,#408,#409,#410,#411,#412,#413),(#414,#415,
#416,#417,#418,#419,#420,#421),(#422,#423,#424,#425,#426,#427,#428,#429)),
 .UNSPECIFIED.,.F.,.F.,.F.,(4,2,4),(4,2,2,4),(0.,0.5,1.),(0.,0.503000006644722,
0.754500009967083,1.00600001328944),.UNSPECIFIED.);
#32=B_SPLINE_SURFACE_WITH_KNOTS('',3,3,((#443,#444,#445,#446,#447,#448,
#449,#450),(#451,#452,#453,#454,#455,#456,#457,#458),(#459,#460,#461,#462,
#463,#464,#465,#466),(#467,#468,#469,#470,#471,#472,#473,#474),(#475,#476,
#477,#478,#479,#480,#481,#482),(#483,#484,#485,#486,#487,#488,#489,#490)),
 .UNSPECIFIED.,.F.,.F.,.F.,(4,2,4),(4,2,2,4),(0.,0.5,1.),(0.,0.503000032202841,
0.754500048304261,1.00600006440568),.UNSPECIFIED.);
#33=B_SPLINE_SURFACE_WITH_KNOTS('',3,3,((#498,#499,#500,#501,#502,#503,
#504,#505),(#506,#507,#508,#509,#510,#511,#512,#513),(#514,#515,#516,#517,
#518,#519,#520,#521),(#522,#523,#524,#525,#526,#527,#528,#529),(#530,#531,
#532,#533,#534,#535,#536,#537),(#538,#539,#540,#541,#542,#543,#544,#545)),
 .UNSPECIFIED.,.F.,.F.,.F.,(4,2,4),(4,2,2,4),(0.,0.5,1.),(0.,0.503000058641296,
0.754500087961944,1.00600011728259),.UNSPECIFIED.);
#34=B_SPLINE_SURFACE_WITH_KNOTS('',3,3,((#553,#554,#555,#556,#557,#558,
#559,#560),(#561,#562,#563,#564,#565,#566,#567,#568),(#569,#570,#571,#572,
#573,#574,#575,#576),(#577,#578,#579,#580,#581,#582,#583,#584),(#585,#586,
#587,#588,#589,#590,#591,#592),(#593,#594,#595,#596,#597,#598,#599,#600)),
 .UNSPECIFIED.,.F.,.F.,.F.,(4,2,4),(4,2,2,4),(0.,0.5,1.),(0.,0.503000042691642,
0.754500064037462,1.00600008538328),.UNSPECIFIED.);
#35=B_SPLINE_SURFACE_WITH_KNOTS('',3,3,((#608,#609,#610,#611,#612,#613,
#614,#615),(#616,#617,#618,#619,#620,#621,#622,#623),(#624,#625,#626,#627,
#628,#629,#630,#631),(#632,#633,#634,#635,#636,#637,#638,#639),(#640,#641,
#642,#643,#644,#645,#646,#647),(#648,#649,#650,#651,#652,#653,#654,#655)),
 .UNSPECIFIED.,.F.,.F.,.F.,(4,2,4),(4,2,2,4),(0.,0.5,1.),(0.,0.503000011350479,
0.754500017025718,1.00600002270096),.UNSPECIFIED.);
#36=B_SPLINE_SURFACE_WITH_KNOTS('',3,3,((#677,#678,#679,#680,#681,#682,
#683,#684,#685,#686,#687,#688),(#689,#690,#691,#692,#693,#694,#695,#696,
#697,#698,#699,#700),(#701,#702,#703,#704,#705,#706,#707,#708,#709,#710,
#711,#712),(#713,#714,#715,#716,#717,#718,#719,#720,#721,#722,#723,#724),
(#725,#726,#727,#728,#729,#730,#731,#732,#733,#734,#735,#736)),
 .UNSPECIFIED.,.F.,.F.,.F.,(4,1,4),(4,1,1,1,1,1,1,1,1,4),(0.0190712925523594,
0.501527576404679,0.983983860256999),(0.0104537857514443,0.252988131272867,
0.374255304033578,0.49552247679429,0.616789649555001,0.717845626855594,
0.798690408696068,0.859323995076424,0.90985198372672,0.980591167837135),
 .UNSPECIFIED.);
#37=B_SPLINE_SURFACE_WITH_KNOTS('',3,3,((#759,#760,#761,#762,#763,#764,
#765,#766,#767,#768,#769,#770,#771),(#772,#773,#774,#775,#776,#777,#778,
#779,#780,#781,#782,#783,#784),(#785,#786,#787,#788,#789,#790,#791,#792,
#793,#794,#795,#796,#797),(#798,#799,#800,#801,#802,#803,#804,#805,#806,
#807,#808,#809,#810),(#811,#812,#813,#814,#815,#816,#817,#818,#819,#820,
#821,#822,#823)),.UNSPECIFIED.,.F.,.F.,.F.,(4,1,4),(4,1,1,1,1,1,1,1,1,1,
4),(0.0124490658554273,0.499325137367377,0.986201208879326),(0.0191794872644527,
0.262599613938181,0.384309677275046,0.50601974061191,0.607444793392631,
0.688584835617207,0.749439867285639,0.810294898954071,0.871149930622503,
0.921862457012864,0.992859993959368),.UNSPECIFIED.);
#38=B_SPLINE_SURFACE_WITH_KNOTS('',3,3,((#847,#848,#849,#850,#851,#852,
#853,#854,#855,#856,#857,#858,#859),(#860,#861,#862,#863,#864,#865,#866,
#867,#868,#869,#870,#871,#872),(#873,#874,#875,#876,#877,#878,#879,#880,
#881,#882,#883,#884,#885),(#886,#887,#888,#889,#890,#891,#892,#893,#894,
#895,#896,#897,#898),(#899,#900,#901,#902,#903,#904,#905,#906,#907,#908,
#909,#910,#911)),.UNSPECIFIED.,.F.,.F.,.F.,(4,1,4),(4,1,1,1,1,1,1,1,1,1,
4),(0.00995089058297818,0.5,0.990049109417022),(0.0224078049673934,0.265226745348829,
0.386636215539547,0.508045685730265,0.60922024422253,0.690159891016342,
0.750864626111701,0.81156936120706,0.872274096302419,0.922861375548551,
0.993683566493137),.UNSPECIFIED.);
#39=B_SPLINE_SURFACE_WITH_KNOTS('',3,3,((#929,#930,#931,#932,#933,#934,
#935,#936,#937,#938,#939,#940,#941),(#942,#943,#944,#945,#946,#947,#948,
#949,#950,#951,#952,#953,#954),(#955,#956,#957,#958,#959,#960,#961,#962,
#963,#964,#965,#966,#967),(#968,#969,#970,#971,#972,#973,#974,#975,#976,
#977,#978,#979,#980),(#981,#982,#983,#984,#985,#986,#987,#988,#989,#990,
#991,#992,#993)),.UNSPECIFIED.,.F.,.F.,.F.,(4,1,4),(4,1,1,1,1,1,1,1,1,1,
4),(0.0137987911206747,0.500674862632624,0.987550934144573),(0.019179487264452,
0.262599613938181,0.384309677275045,0.506019740611909,0.60744479339263,
0.688584835617206,0.749439867285638,0.81029489895407,0.871149930622502,
0.921862457012863,0.992859993959367),.UNSPECIFIED.);
#40=B_SPLINE_SURFACE_WITH_KNOTS('',3,3,((#1014,#1015,#1016,#1017,#1018,
#1019,#1020,#1021,#1022,#1023,#1024,#1025),(#1026,#1027,#1028,#1029,#1030,
#1031,#1032,#1033,#1034,#1035,#1036,#1037),(#1038,#1039,#1040,#1041,#1042,
#1043,#1044,#1045,#1046,#1047,#1048,#1049),(#1050,#1051,#1052,#1053,#1054,
#1055,#1056,#1057,#1058,#1059,#1060,#1061),(#1062,#1063,#1064,#1065,#1066,
#1067,#1068,#1069,#1070,#1071,#1072,#1073)),.UNSPECIFIED.,.F.,.F.,.F.,(4,
1,4),(4,1,1,1,1,1,1,1,1,4),(0.016016139743001,0.498472423595321,0.980928707447641),
(0.0104537857514439,0.252988131272862,0.37425530403357,0.495522476794279,
0.616789649554988,0.717845626855579,0.798690408696051,0.859323995076406,
0.909851983726701,0.980591167837114),.UNSPECIFIED.);
#41=B_SPLINE_CURVE_WITH_KNOTS('',3,(#357,#358,#359,#360),.UNSPECIFIED.,
 .F.,.F.,(4,4),(0.,0.0578950747115784),.UNSPECIFIED.);
#42=B_SPLINE_CURVE_WITH_KNOTS('',3,(#363,#364,#365,#366),.UNSPECIFIED.,
 .F.,.F.,(4,4),(0.,0.0578950741336541),.UNSPECIFIED.);
#43=B_SPLINE_CURVE_WITH_KNOTS('',3,(#368,#369,#370,#371),.UNSPECIFIED.,
 .F.,.F.,(4,4),(0.,0.0579026125497888),.UNSPECIFIED.);
#44=B_SPLINE_CURVE_WITH_KNOTS('',3,(#373,#374,#375,#376),.UNSPECIFIED.,
 .F.,.F.,(4,4),(0.,0.0580619556431271),.UNSPECIFIED.);
#45=B_SPLINE_CURVE_WITH_KNOTS('',3,(#378,#379,#380,#381),.UNSPECIFIED.,
 .F.,.F.,(4,4),(0.,0.0579026141730544),.UNSPECIFIED.);
#46=B_SPLINE_CURVE_WITH_KNOTS('',3,(#433,#434,#435,#436,#437),
 .UNSPECIFIED.,.F.,.F.,(4,1,4),(0.,0.742096634685985,1.),.UNSPECIFIED.);
#47=B_SPLINE_CURVE_WITH_KNOTS('',3,(#438,#439,#440,#441,#442),
 .UNSPECIFIED.,.F.,.F.,(4,1,4),(0.,0.742096634685985,1.),.UNSPECIFIED.);
#48=B_SPLINE_CURVE_WITH_KNOTS('',3,(#493,#494,#495,#496,#497),
 .UNSPECIFIED.,.F.,.F.,(4,1,4),(0.,0.742096634685985,1.),.UNSPECIFIED.);
#49=B_SPLINE_CURVE_WITH_KNOTS('',3,(#548,#549,#550,#551,#552),
 .UNSPECIFIED.,.F.,.F.,(4,1,4),(0.,0.742096634685985,1.),.UNSPECIFIED.);
#50=B_SPLINE_CURVE_WITH_KNOTS('',3,(#603,#604,#605,#606,#607),
 .UNSPECIFIED.,.F.,.F.,(4,1,4),(0.,0.742096634685985,1.),.UNSPECIFIED.);
#51=B_SPLINE_CURVE_WITH_KNOTS('',3,(#665,#666,#667,#668),.UNSPECIFIED.,
 .F.,.F.,(4,4),(0.000362800823091244,0.00327290937679762),.UNSPECIFIED.);
#52=B_SPLINE_CURVE_WITH_KNOTS('',3,(#673,#674,#675,#676),.UNSPECIFIED.,
 .F.,.F.,(4,4),(0.000491128693270925,0.00341224094891864),.UNSPECIFIED.);
#53=B_SPLINE_CURVE_WITH_KNOTS('',3,(#737,#738,#739,#740,#741,#742,#743),
 .UNSPECIFIED.,.F.,.F.,(4,1,1,1,4),(0.,0.0171064474658733,0.0342128949317467,
0.05131934239762,0.0684257898634933),.UNSPECIFIED.);
#54=B_SPLINE_CURVE_WITH_KNOTS('',3,(#744,#745,#746,#747,#748,#749,#750,
#751,#752),.UNSPECIFIED.,.F.,.F.,(4,1,1,1,1,1,4),(0.,0.0186009172576897,
0.0279013758865345,0.0372018345153794,0.0558027517730691,0.0651032104019139,
0.0744036690307587),.UNSPECIFIED.);
#55=B_SPLINE_CURVE_WITH_KNOTS('',3,(#754,#755,#756,#757,#758),
 .UNSPECIFIED.,.F.,.F.,(4,1,4),(4.19040187148013E-15,0.00154271118343024,
0.00308542236685629),.UNSPECIFIED.);
#56=B_SPLINE_CURVE_WITH_KNOTS('',3,(#824,#825,#826,#827,#828,#829,#830,
#831,#832,#833,#834,#835),.UNSPECIFIED.,.F.,.F.,(4,1,1,1,1,1,1,1,1,4),(0.,
0.0195492142917019,0.0293238214375529,0.0390984285834039,0.0488730357292548,
0.0586476428751058,0.0635349464480313,0.0684222500209567,0.0733095535938822,
0.0781968571668077),.UNSPECIFIED.);
#57=B_SPLINE_CURVE_WITH_KNOTS('',3,(#837,#838,#839,#840),.UNSPECIFIED.,
 .F.,.F.,(4,4),(0.,0.000808377736279401),.UNSPECIFIED.);
#58=B_SPLINE_CURVE_WITH_KNOTS('',3,(#842,#843,#844,#845,#846),
 .UNSPECIFIED.,.F.,.F.,(4,1,4),(0.00180108825151244,0.00312943159338639,
0.00445777493526033),.UNSPECIFIED.);
#59=B_SPLINE_CURVE_WITH_KNOTS('',3,(#912,#913,#914,#915,#916,#917,#918,
#919,#920,#921,#922,#923),.UNSPECIFIED.,.F.,.F.,(4,1,1,1,1,1,1,1,1,4),(0.,
0.0195418947638978,0.0293128421458467,0.0390837895277956,0.0488547369097446,
0.0586256842916935,0.0635111579826679,0.0683966316736424,0.0732821053646168,
0.0781675790555913),.UNSPECIFIED.);
#60=B_SPLINE_CURVE_WITH_KNOTS('',3,(#925,#926,#927,#928),.UNSPECIFIED.,
 .F.,.F.,(4,4),(0.,0.00369048675131671),.UNSPECIFIED.);
#61=B_SPLINE_CURVE_WITH_KNOTS('',3,(#994,#995,#996,#997,#998),
 .UNSPECIFIED.,.F.,.F.,(4,1,4),(0.00180108825151251,0.00312943159338886,
0.0044577749352652),.UNSPECIFIED.);
#62=B_SPLINE_CURVE_WITH_KNOTS('',3,(#1001,#1002,#1003,#1004),
 .UNSPECIFIED.,.F.,.F.,(4,4),(0.00254823104645059,0.00335451629889437),
 .UNSPECIFIED.);
#63=B_SPLINE_CURVE_WITH_KNOTS('',3,(#1005,#1006,#1007,#1008,#1009,#1010,
#1011,#1012,#1013),.UNSPECIFIED.,.F.,.F.,(4,1,1,1,1,1,4),(0.,0.0186014710262281,
0.0279022065393421,0.0372029420524561,0.0558044130786842,0.0651051485917983,
0.0744058841049123),.UNSPECIFIED.);
#64=B_SPLINE_CURVE_WITH_KNOTS('',3,(#1074,#1075,#1076,#1077,#1078),
 .UNSPECIFIED.,.F.,.F.,(4,1,4),(0.000216736795556304,0.00175819709521102,
0.00329965739486573),.UNSPECIFIED.);
#65=ORIENTED_EDGE('',*,*,#141,.F.);
#66=ORIENTED_EDGE('',*,*,#142,.F.);
#67=ORIENTED_EDGE('',*,*,#143,.F.);
#68=ORIENTED_EDGE('',*,*,#144,.F.);
#69=ORIENTED_EDGE('',*,*,#145,.F.);
#70=ORIENTED_EDGE('',*,*,#146,.T.);
#71=ORIENTED_EDGE('',*,*,#147,.T.);
#72=ORIENTED_EDGE('',*,*,#148,.T.);
#73=ORIENTED_EDGE('',*,*,#149,.T.);
#74=ORIENTED_EDGE('',*,*,#150,.T.);
#75=ORIENTED_EDGE('',*,*,#151,.F.);
#76=ORIENTED_EDGE('',*,*,#152,.F.);
#77=ORIENTED_EDGE('',*,*,#142,.T.);
#78=ORIENTED_EDGE('',*,*,#153,.T.);
#79=ORIENTED_EDGE('',*,*,#152,.T.);
#80=ORIENTED_EDGE('',*,*,#154,.F.);
#81=ORIENTED_EDGE('',*,*,#155,.F.);
#82=ORIENTED_EDGE('',*,*,#143,.T.);
#83=ORIENTED_EDGE('',*,*,#155,.T.);
#84=ORIENTED_EDGE('',*,*,#156,.F.);
#85=ORIENTED_EDGE('',*,*,#157,.F.);
#86=ORIENTED_EDGE('',*,*,#144,.T.);
#87=ORIENTED_EDGE('',*,*,#157,.T.);
#88=ORIENTED_EDGE('',*,*,#158,.F.);
#89=ORIENTED_EDGE('',*,*,#159,.F.);
#90=ORIENTED_EDGE('',*,*,#145,.T.);
#91=ORIENTED_EDGE('',*,*,#159,.T.);
#92=ORIENTED_EDGE('',*,*,#160,.F.);
#93=ORIENTED_EDGE('',*,*,#153,.F.);
#94=ORIENTED_EDGE('',*,*,#141,.T.);
#95=ORIENTED_EDGE('',*,*,#161,.F.);
#96=ORIENTED_EDGE('',*,*,#160,.T.);
#97=ORIENTED_EDGE('',*,*,#158,.T.);
#98=ORIENTED_EDGE('',*,*,#156,.T.);
#99=ORIENTED_EDGE('',*,*,#154,.T.);
#100=ORIENTED_EDGE('',*,*,#151,.T.);
#101=ORIENTED_EDGE('',*,*,#162,.F.);
#102=ORIENTED_EDGE('',*,*,#161,.T.);
#103=ORIENTED_EDGE('',*,*,#162,.T.);
#104=ORIENTED_EDGE('',*,*,#163,.T.);
#105=ORIENTED_EDGE('',*,*,#164,.F.);
#106=ORIENTED_EDGE('',*,*,#165,.T.);
#107=ORIENTED_EDGE('',*,*,#166,.F.);
#108=ORIENTED_EDGE('',*,*,#146,.F.);
#109=ORIENTED_EDGE('',*,*,#167,.T.);
#110=ORIENTED_EDGE('',*,*,#168,.F.);
#111=ORIENTED_EDGE('',*,*,#163,.F.);
#112=ORIENTED_EDGE('',*,*,#167,.F.);
#113=ORIENTED_EDGE('',*,*,#150,.F.);
#114=ORIENTED_EDGE('',*,*,#169,.T.);
#115=ORIENTED_EDGE('',*,*,#170,.T.);
#116=ORIENTED_EDGE('',*,*,#171,.F.);
#117=ORIENTED_EDGE('',*,*,#169,.F.);
#118=ORIENTED_EDGE('',*,*,#149,.F.);
#119=ORIENTED_EDGE('',*,*,#172,.T.);
#120=ORIENTED_EDGE('',*,*,#173,.T.);
#121=ORIENTED_EDGE('',*,*,#174,.T.);
#122=ORIENTED_EDGE('',*,*,#175,.T.);
#123=ORIENTED_EDGE('',*,*,#172,.F.);
#124=ORIENTED_EDGE('',*,*,#148,.F.);
#125=ORIENTED_EDGE('',*,*,#176,.T.);
#126=ORIENTED_EDGE('',*,*,#177,.F.);
#127=ORIENTED_EDGE('',*,*,#176,.F.);
#128=ORIENTED_EDGE('',*,*,#147,.F.);
#129=ORIENTED_EDGE('',*,*,#166,.T.);
#130=ORIENTED_EDGE('',*,*,#165,.F.);
#131=ORIENTED_EDGE('',*,*,#178,.T.);
#132=ORIENTED_EDGE('',*,*,#170,.F.);
#133=ORIENTED_EDGE('',*,*,#173,.F.);
#134=ORIENTED_EDGE('',*,*,#175,.F.);
#135=ORIENTED_EDGE('',*,*,#168,.T.);
#136=ORIENTED_EDGE('',*,*,#171,.T.);
#137=ORIENTED_EDGE('',*,*,#178,.F.);
#138=ORIENTED_EDGE('',*,*,#174,.F.);
#139=ORIENTED_EDGE('',*,*,#177,.T.);
#140=ORIENTED_EDGE('',*,*,#164,.T.);
#141=EDGE_CURVE('',#179,#180,#205,.F.);
#142=EDGE_CURVE('',#181,#179,#206,.F.);
#143=EDGE_CURVE('',#182,#181,#207,.F.);
#144=EDGE_CURVE('',#183,#182,#208,.F.);
#145=EDGE_CURVE('',#180,#183,#209,.F.);
#146=EDGE_CURVE('',#184,#185,#41,.T.);
#147=EDGE_CURVE('',#185,#186,#42,.T.);
#148=EDGE_CURVE('',#186,#187,#43,.T.);
#149=EDGE_CURVE('',#187,#188,#44,.T.);
#150=EDGE_CURVE('',#188,#184,#45,.T.);
#151=EDGE_CURVE('',#189,#190,#22,.T.);
#152=EDGE_CURVE('',#181,#189,#46,.T.);
#153=EDGE_CURVE('',#179,#190,#47,.T.);
#154=EDGE_CURVE('',#191,#189,#23,.T.);
#155=EDGE_CURVE('',#182,#191,#48,.T.);
#156=EDGE_CURVE('',#192,#191,#24,.T.);
#157=EDGE_CURVE('',#183,#192,#49,.T.);
#158=EDGE_CURVE('',#193,#192,#25,.T.);
#159=EDGE_CURVE('',#180,#193,#50,.T.);
#160=EDGE_CURVE('',#190,#193,#26,.T.);
#161=EDGE_CURVE('',#194,#194,#27,.T.);
#162=EDGE_CURVE('',#195,#195,#28,.T.);
#163=EDGE_CURVE('',#196,#197,#51,.T.);
#164=EDGE_CURVE('',#198,#197,#29,.T.);
#165=EDGE_CURVE('',#198,#196,#52,.T.);
#166=EDGE_CURVE('',#185,#196,#53,.T.);
#167=EDGE_CURVE('',#184,#199,#54,.T.);
#168=EDGE_CURVE('',#197,#199,#55,.T.);
#169=EDGE_CURVE('',#188,#200,#56,.T.);
#170=EDGE_CURVE('',#200,#201,#57,.T.);
#171=EDGE_CURVE('',#199,#201,#58,.F.);
#172=EDGE_CURVE('',#187,#202,#59,.T.);
#173=EDGE_CURVE('',#202,#200,#60,.T.);
#174=EDGE_CURVE('',#203,#204,#61,.F.);
#175=EDGE_CURVE('',#204,#202,#62,.T.);
#176=EDGE_CURVE('',#186,#203,#63,.T.);
#177=EDGE_CURVE('',#203,#198,#64,.T.);
#178=EDGE_CURVE('',#204,#201,#30,.T.);
#179=VERTEX_POINT('',#348);
#180=VERTEX_POINT('',#349);
#181=VERTEX_POINT('',#351);
#182=VERTEX_POINT('',#353);
#183=VERTEX_POINT('',#355);
#184=VERTEX_POINT('',#361);
#185=VERTEX_POINT('',#362);
#186=VERTEX_POINT('',#367);
#187=VERTEX_POINT('',#372);
#188=VERTEX_POINT('',#377);
#189=VERTEX_POINT('',#431);
#190=VERTEX_POINT('',#432);
#191=VERTEX_POINT('',#492);
#192=VERTEX_POINT('',#547);
#193=VERTEX_POINT('',#602);
#194=VERTEX_POINT('',#659);
#195=VERTEX_POINT('',#662);
#196=VERTEX_POINT('',#669);
#197=VERTEX_POINT('',#670);
#198=VERTEX_POINT('',#672);
#199=VERTEX_POINT('',#753);
#200=VERTEX_POINT('',#836);
#201=VERTEX_POINT('',#841);
#202=VERTEX_POINT('',#924);
#203=VERTEX_POINT('',#999);
#204=VERTEX_POINT('',#1000);
#205=LINE('',#347,#210);
#206=LINE('',#350,#211);
#207=LINE('',#352,#212);
#208=LINE('',#354,#213);
#209=LINE('',#356,#214);
#210=VECTOR('',#310,1.);
#211=VECTOR('',#311,1.);
#212=VECTOR('',#312,1.);
#213=VECTOR('',#313,1.);
#214=VECTOR('',#314,1.);
#215=EDGE_LOOP('',(#65,#66,#67,#68,#69));
#216=EDGE_LOOP('',(#70,#71,#72,#73,#74));
#217=EDGE_LOOP('',(#75,#76,#77,#78));
#218=EDGE_LOOP('',(#79,#80,#81,#82));
#219=EDGE_LOOP('',(#83,#84,#85,#86));
#220=EDGE_LOOP('',(#87,#88,#89,#90));
#221=EDGE_LOOP('',(#91,#92,#93,#94));
#222=EDGE_LOOP('',(#95));
#223=EDGE_LOOP('',(#96,#97,#98,#99,#100));
#224=EDGE_LOOP('',(#101));
#225=EDGE_LOOP('',(#102));
#226=EDGE_LOOP('',(#103));
#227=EDGE_LOOP('',(#104,#105,#106));
#228=EDGE_LOOP('',(#107,#108,#109,#110,#111));
#229=EDGE_LOOP('',(#112,#113,#114,#115,#116));
#230=EDGE_LOOP('',(#117,#118,#119,#120));
#231=EDGE_LOOP('',(#121,#122,#123,#124,#125));
#232=EDGE_LOOP('',(#126,#127,#128,#129,#130));
#233=EDGE_LOOP('',(#131,#132,#133,#134));
#234=EDGE_LOOP('',(#135,#136,#137,#138,#139,#140));
#235=FACE_BOUND('',#215,.T.);
#236=FACE_BOUND('',#216,.T.);
#237=FACE_BOUND('',#217,.T.);
#238=FACE_BOUND('',#218,.T.);
#239=FACE_BOUND('',#219,.T.);
#240=FACE_BOUND('',#220,.T.);
#241=FACE_BOUND('',#221,.T.);
#242=FACE_BOUND('',#222,.T.);
#243=FACE_BOUND('',#223,.T.);
#244=FACE_BOUND('',#224,.T.);
#245=FACE_BOUND('',#225,.T.);
#246=FACE_BOUND('',#226,.T.);
#247=FACE_BOUND('',#227,.T.);
#248=FACE_BOUND('',#228,.T.);
#249=FACE_BOUND('',#229,.T.);
#250=FACE_BOUND('',#230,.T.);
#251=FACE_BOUND('',#231,.T.);
#252=FACE_BOUND('',#232,.T.);
#253=FACE_BOUND('',#233,.T.);
#254=FACE_BOUND('',#234,.T.);
#255=PLANE('',#290);
#256=PLANE('',#296);
#257=PLANE('',#300);
#258=PLANE('',#301);
#259=PLANE('',#303);
#260=ADVANCED_FACE('',(#235,#236),#255,.T.);
#261=ADVANCED_FACE('',(#237),#31,.T.);
#262=ADVANCED_FACE('',(#238),#32,.T.);
#263=ADVANCED_FACE('',(#239),#33,.T.);
#264=ADVANCED_FACE('',(#240),#34,.T.);
#265=ADVANCED_FACE('',(#241),#35,.T.);
#266=ADVANCED_FACE('',(#242,#243),#256,.T.);
#267=ADVANCED_FACE('',(#244,#245),#20,.F.);
#268=ADVANCED_FACE('',(#246),#257,.T.);
#269=ADVANCED_FACE('',(#247),#258,.F.);
#270=ADVANCED_FACE('',(#248),#36,.F.);
#271=ADVANCED_FACE('',(#249),#37,.F.);
#272=ADVANCED_FACE('',(#250),#38,.F.);
#273=ADVANCED_FACE('',(#251),#39,.F.);
#274=ADVANCED_FACE('',(#252),#40,.F.);
#275=ADVANCED_FACE('',(#253),#259,.F.);
#276=ADVANCED_FACE('',(#254),#21,.T.);
#277=CLOSED_SHELL('',(#260,#261,#262,#263,#264,#265,#266,#267,#268,#269,
#270,#271,#272,#273,#274,#275,#276));
#278=STYLED_ITEM('',(#279),#286);
#279=PRESENTATION_STYLE_ASSIGNMENT((#280));
#280=SURFACE_STYLE_USAGE(.BOTH.,#281);
#281=SURFACE_SIDE_STYLE('',(#282));
#282=SURFACE_STYLE_FILL_AREA(#283);
#283=FILL_AREA_STYLE('',(#284));
#284=FILL_AREA_STYLE_COLOUR('',#285);
#285=COLOUR_RGB('',0.972549019607843,0.529411764705882,0.00392156862745098);
#286=MANIFOLD_SOLID_BREP('Bottom Support',#277);
#287=SHAPE_DEFINITION_REPRESENTATION(#1088,#288);
#288=SHAPE_REPRESENTATION('Bottom Support',(#289),#1083);
#289=AXIS2_PLACEMENT_3D('',#345,#306,#307);
#290=AXIS2_PLACEMENT_3D('',#346,#308,#309);
#291=AXIS2_PLACEMENT_3D('',#430,#315,#316);
#292=AXIS2_PLACEMENT_3D('',#491,#317,#318);
#293=AXIS2_PLACEMENT_3D('',#546,#319,#320);
#294=AXIS2_PLACEMENT_3D('',#601,#321,#322);
#295=AXIS2_PLACEMENT_3D('',#656,#323,#324);
#296=AXIS2_PLACEMENT_3D('',#657,#325,#326);
#297=AXIS2_PLACEMENT_3D('',#658,#327,#328);
#298=AXIS2_PLACEMENT_3D('',#660,#329,#330);
#299=AXIS2_PLACEMENT_3D('',#661,#331,#332);
#300=AXIS2_PLACEMENT_3D('',#663,#333,#334);
#301=AXIS2_PLACEMENT_3D('',#664,#335,#336);
#302=AXIS2_PLACEMENT_3D('',#671,#337,#338);
#303=AXIS2_PLACEMENT_3D('',#1079,#339,#340);
#304=AXIS2_PLACEMENT_3D('',#1080,#341,#342);
#305=AXIS2_PLACEMENT_3D('',#1081,#343,#344);
#306=DIRECTION('',(0.,0.,1.));
#307=DIRECTION('',(1.,0.,0.));
#308=DIRECTION('',(0.,0.,1.));
#309=DIRECTION('',(1.,0.,0.));
#310=DIRECTION('',(0.809016994374947,-0.587785252292473,0.));
#311=DIRECTION('',(0.809016994374948,0.587785252292473,0.));
#312=DIRECTION('',(-0.309016994374947,0.951056516295154,0.));
#313=DIRECTION('',(-1.,4.49438499642614E-16,0.));
#314=DIRECTION('',(-0.309016994374948,-0.951056516295154,0.));
#315=DIRECTION('',(0.,0.5,-0.866025403784439));
#316=DIRECTION('',(0.,0.866025403784439,0.5));
#317=DIRECTION('',(0.,0.5,-0.866025403784439));
#318=DIRECTION('',(0.,0.866025403784439,0.5));
#319=DIRECTION('',(0.,0.5,-0.866025403784439));
#320=DIRECTION('',(0.,0.866025403784439,0.5));
#321=DIRECTION('',(0.,0.5,-0.866025403784439));
#322=DIRECTION('',(0.,0.866025403784439,0.5));
#323=DIRECTION('',(0.,0.5,-0.866025403784439));
#324=DIRECTION('',(0.,0.866025403784439,0.5));
#325=DIRECTION('',(0.,0.5,-0.866025403784439));
#326=DIRECTION('',(1.,0.,0.));
#327=DIRECTION('',(0.,0.5,-0.866025403784439));
#328=DIRECTION('',(0.,0.866025403784439,0.5));
#329=DIRECTION('',(0.,0.5,-0.866025403784439));
#330=DIRECTION('',(0.,0.866025403784439,0.5));
#331=DIRECTION('',(0.,0.5,-0.866025403784439));
#332=DIRECTION('',(0.,0.866025403784439,0.5));
#333=DIRECTION('',(0.,0.5,-0.866025403784439));
#334=DIRECTION('',(1.,0.,0.));
#335=DIRECTION('',(0.,0.5,-0.866025403784439));
#336=DIRECTION('',(1.,0.,0.));
#337=DIRECTION('',(0.,0.5,-0.866025403784439));
#338=DIRECTION('',(0.,0.866025403784439,0.5));
#339=DIRECTION('',(0.,0.5,-0.866025403784439));
#340=DIRECTION('',(1.,0.,0.));
#341=DIRECTION('',(0.,0.5,-0.866025403784439));
#342=DIRECTION('',(0.,0.866025403784439,0.5));
#343=DIRECTION('',(0.,0.5,-0.866025403784439));
#344=DIRECTION('',(0.,0.866025403784439,0.5));
#345=CARTESIAN_POINT('',(0.,0.,0.));
#346=CARTESIAN_POINT('',(0.,0.00498355547812947,0.052));
#347=CARTESIAN_POINT('',(-0.0249808732224302,-0.0243832222609353,0.052));
#348=CARTESIAN_POINT('',(-1.7347234759768E-18,-0.0425328890437411,0.052));
#349=CARTESIAN_POINT('',(-0.0499617464448603,-0.00623355547812948,0.052));
#350=CARTESIAN_POINT('',(0.0249808732224302,-0.0243832222609353,0.052));
#351=CARTESIAN_POINT('',(0.0499617464448603,-0.00623355547812951,0.052));
#352=CARTESIAN_POINT('',(0.0404199019425441,0.0231332222609353,0.052));
#353=CARTESIAN_POINT('',(0.0308780574402278,0.0525,0.052));
#354=CARTESIAN_POINT('',(1.04083408558608E-17,0.0525,0.052));
#355=CARTESIAN_POINT('',(-0.0308780574402278,0.0525,0.052));
#356=CARTESIAN_POINT('',(-0.0404199019425441,0.0231332222609353,0.052));
#357=CARTESIAN_POINT('',(0.0468425757852132,-0.00577895484202784,0.052));
#358=CARTESIAN_POINT('',(0.0312151016031257,-0.017101882525943,0.052));
#359=CARTESIAN_POINT('',(0.0155996863986759,-0.0284414504856177,0.052));
#360=CARTESIAN_POINT('',(-1.23599047663347E-17,-0.0398026308559929,0.052));
#361=CARTESIAN_POINT('',(0.0468425757852132,-0.00577895484202784,0.052));
#362=CARTESIAN_POINT('',(-1.82145964977565E-17,-0.0398026308559929,0.052));
#363=CARTESIAN_POINT('',(-1.82145964977565E-17,-0.0398026308559929,0.052));
#364=CARTESIAN_POINT('',(-0.015599686532096,-0.0284414503884488,0.052));
#365=CARTESIAN_POINT('',(-0.0312151020081548,-0.0171018822324777,0.052));
#366=CARTESIAN_POINT('',(-0.0468425757852132,-0.00577895484202781,0.052));
#367=CARTESIAN_POINT('',(-0.0468425757852132,-0.0057789548420278,0.052));
#368=CARTESIAN_POINT('',(-0.0468425757852132,-0.0057789548420278,0.052));
#369=CARTESIAN_POINT('',(-0.0408752616359715,0.0125762853467087,0.052));
#370=CARTESIAN_POINT('',(-0.0349470427811609,0.030944206302234,0.052));
#371=CARTESIAN_POINT('',(-0.0290309766878855,0.0493160265908624,0.052));
#372=CARTESIAN_POINT('',(-0.0290309766878854,0.0493160265908624,0.052));
#373=CARTESIAN_POINT('',(-0.0290309766878855,0.0493160265908624,0.052));
#374=CARTESIAN_POINT('',(-0.00967699354177197,0.0493066754002411,0.052));
#375=CARTESIAN_POINT('',(0.00967699355396916,0.0493066754002471,0.052));
#376=CARTESIAN_POINT('',(0.0290309766878855,0.0493160265908624,0.052));
#377=CARTESIAN_POINT('',(0.0290309766878855,0.0493160265908623,0.052));
#378=CARTESIAN_POINT('',(0.0290309766878855,0.0493160265908623,0.052));
#379=CARTESIAN_POINT('',(0.0349470429851264,0.0309442056688368,0.052));
#380=CARTESIAN_POINT('',(0.0408752614360089,0.0125762859617861,0.052));
#381=CARTESIAN_POINT('',(0.0468425757852132,-0.00577895484202785,0.052));
#382=CARTESIAN_POINT('',(0.0499617464448603,-0.0062335554781295,0.052));
#383=CARTESIAN_POINT('',(0.0413402195439747,-0.00761442614587512,0.0433601710344859));
#384=CARTESIAN_POINT('',(0.0327186926430892,-0.00899529681362074,0.0347203420689718));
#385=CARTESIAN_POINT('',(0.0208626951916783,-0.00744106575076417,0.020004327157268));
#386=CARTESIAN_POINT('',(0.0170908823308029,-0.00631602377493162,0.0148049647651826));
#387=CARTESIAN_POINT('',(0.0100821030694929,-0.00226428744194869,0.00353348910077989));
#388=CARTESIAN_POINT('',(0.00682949209771245,0.000609707530789921,-0.00251309569855895));
#389=CARTESIAN_POINT('',(0.00357101442611923,0.0034639402830224,-0.00855010734409691));
#390=CARTESIAN_POINT('',(0.0416347887040499,-0.0122834444057315,0.052));
#391=CARTESIAN_POINT('',(0.0343596866301005,-0.0125650040982466,0.0434562696537318));
#392=CARTESIAN_POINT('',(0.0270845845561509,-0.0128465637907617,0.0349125393074635));
#393=CARTESIAN_POINT('',(0.0172559356116501,-0.0098880781482464,0.0201419966397296));
#394=CARTESIAN_POINT('',(0.014161196558878,-0.00833591946000369,0.0148911972766114));
#395=CARTESIAN_POINT('',(0.00851039690374385,-0.00355155533999706,0.00341811898127773));
#396=CARTESIAN_POINT('',(0.00593857964209122,-0.000368492256715384,-0.00277574360614726));
#397=CARTESIAN_POINT('',(0.00336085364775003,0.00279614249125013,-0.00895895009050779));
#398=CARTESIAN_POINT('',(0.0333078309632402,-0.0183333333333333,0.052));
#399=CARTESIAN_POINT('',(0.0274412831337032,-0.0175335353699707,0.0435420029192166));
#400=CARTESIAN_POINT('',(0.0215747353041661,-0.0167337374066081,0.0350840058384331));
#401=CARTESIAN_POINT('',(0.0137381817303175,-0.0123608102095818,0.0202648168673422));
#402=CARTESIAN_POINT('',(0.011287261595286,-0.0103719252601681,0.014968128608755));
#403=CARTESIAN_POINT('',(0.00686410196268119,-0.00481726958185926,0.00331519287097668));
#404=CARTESIAN_POINT('',(0.00487786077688804,-0.00129762368299682,-0.00301006188217432));
#405=CARTESIAN_POINT('',(0.00288636897093776,0.00220472544718248,-0.00932369439167055));
#406=CARTESIAN_POINT('',(0.01665391548162,-0.0304331111885373,0.052));
#407=CARTESIAN_POINT('',(0.0136823039213149,-0.0275618469527099,0.0436607867927882));
#408=CARTESIAN_POINT('',(0.0107106923610097,-0.0246905827168825,0.0353215735855765));
#409=CARTESIAN_POINT('',(0.00681416891246841,-0.0174369963770944,0.020434984914789));
#410=CARTESIAN_POINT('',(0.00560922914356266,-0.014525817681317,0.0150747173591004));
#411=CARTESIAN_POINT('',(0.00347807681169801,-0.00723915005490434,0.00317258822382955));
#412=CARTESIAN_POINT('',(0.00254371131517405,-0.00290649305387167,-0.00333471104044167));
#413=CARTESIAN_POINT('',(0.0016062884760894,0.00141010201309937,-0.00982904946837671));
#414=CARTESIAN_POINT('',(0.00832695774081002,-0.0364830001161391,0.052));
#415=CARTESIAN_POINT('',(0.00684089344634463,-0.0326221524976526,0.0436935341569255));
#416=CARTESIAN_POINT('',(0.00535482915187923,-0.0287613048791661,0.0353870683138511));
#417=CARTESIAN_POINT('',(0.00340671411239438,-0.0200412029257476,0.0204818983117571));
#418=CARTESIAN_POINT('',(0.00280438259822533,-0.0166441756123059,0.015104102666344));
#419=CARTESIAN_POINT('',(0.00173934876230779,-0.00839468572238605,0.00313327374310599));
#420=CARTESIAN_POINT('',(0.00127256220513034,-0.00358479547740112,-0.00342421312420929));
#421=CARTESIAN_POINT('',(0.000804244063437291,0.00120913018257351,-0.0099683701203973));
#422=CARTESIAN_POINT('',(0.,-0.0425328890437411,0.052));
#423=CARTESIAN_POINT('',(2.2713882057702E-18,-0.0377391781410951,0.0436935341569255));
#424=CARTESIAN_POINT('',(4.5427764115404E-18,-0.0329454672384492,0.0353870683138511));
#425=CARTESIAN_POINT('',(5.27969955880048E-18,-0.0227266658615052,0.0204818983117571));
#426=CARTESIAN_POINT('',(5.07831910290793E-18,-0.018813430388437,0.015104102666344));
#427=CARTESIAN_POINT('',(3.34866550568784E-18,-0.00948212671178142,0.00313327374310599));
#428=CARTESIAN_POINT('',(1.85920475038326E-18,-0.00410807574446179,-0.00342421312420929));
#429=CARTESIAN_POINT('',(3.84298604008497E-19,0.00124946879989093,-0.0099683701203973));
#430=CARTESIAN_POINT('',(0.,0.00433012701892219,-0.0075));
#431=CARTESIAN_POINT('',(0.00380422606518062,0.00325966074960292,-0.0081180339887499));
#432=CARTESIAN_POINT('',(4.89858719658941E-19,0.000866025403784437,-0.0095));
#433=CARTESIAN_POINT('',(0.0499617464448603,-0.00623355547812951,0.052));
#434=CARTESIAN_POINT('',(0.0372420525790888,-0.00827081086964763,0.0392533043441904));
#435=CARTESIAN_POINT('',(0.0201018402789028,-0.0110160805505702,0.022076706230114));
#436=CARTESIAN_POINT('',(0.00714566680555037,0.000332757280553193,-0.00192731590025552));
#437=CARTESIAN_POINT('',(0.00380422606518062,0.00325966074960292,-0.0081180339887499));
#438=CARTESIAN_POINT('',(-3.46944695195361E-18,-0.0425328890437411,0.052));
#439=CARTESIAN_POINT('',(5.70559205650155E-20,-0.0354605298359534,0.0397451286941364));
#440=CARTESIAN_POINT('',(4.8091363204591E-18,-0.0259302895987364,0.0232312803177059));
#441=CARTESIAN_POINT('',(1.3754245426693E-18,-0.00462792588669435,-0.00278922429358042));
#442=CARTESIAN_POINT('',(4.89858719658941E-19,0.000866025403784437,-0.0095));
#443=CARTESIAN_POINT('',(0.0308780574402279,0.0525,0.052));
#444=CARTESIAN_POINT('',(0.0255496605098159,0.0411284459072479,0.0428207777053739));
#445=CARTESIAN_POINT('',(0.020221263579404,0.0297568918144958,0.0336415554107478));
#446=CARTESIAN_POINT('',(0.0128938538791822,0.0172915534445155,0.0192315990670982));
#447=CARTESIAN_POINT('',(0.0105627452503033,0.0139052036565374,0.0143209474586414));
#448=CARTESIAN_POINT('',(0.00623108132200432,0.00941442100873954,0.00418104853045563));
#449=CARTESIAN_POINT('',(0.00422085711669393,0.00824324055311079,-0.00103887965170959));
#450=CARTESIAN_POINT('',(0.00220700706174023,0.00704702968047319,-0.00625531314771338));
#451=CARTESIAN_POINT('',(0.0340586722743333,0.0427110740869784,0.052));
#452=CARTESIAN_POINT('',(0.0280763473225721,0.0329517949072059,0.0428801699213576));
#453=CARTESIAN_POINT('',(0.0220940223708108,0.0231925157274333,0.0337603398427152));
#454=CARTESIAN_POINT('',(0.0140714679091331,0.0130937539550466,0.0193166834783183));
#455=CARTESIAN_POINT('',(0.0115564823988475,0.0104875850089025,0.0143742420650779));
#456=CARTESIAN_POINT('',(0.00699906221658706,0.00753140509190101,0.00410974583490035));
#457=CARTESIAN_POINT('',(0.00494280511665017,0.00711539999182825,-0.00120120503617398));
#458=CARTESIAN_POINT('',(0.00288136459202555,0.00667464702549341,-0.0065079919161409));
#459=CARTESIAN_POINT('',(0.0372392871084387,0.0329221481739568,0.052));
#460=CARTESIAN_POINT('',(0.0306419492576329,0.0248207682464109,0.0429659033618873));
#461=CARTESIAN_POINT('',(0.0240446114068272,0.016719388318865,0.0339318067237745));
#462=CARTESIAN_POINT('',(0.0153048311684067,0.00896131521997712,0.0194395039386853));
#463=CARTESIAN_POINT('',(0.0125851393781021,0.00711090659499731,0.0144511735264789));
#464=CARTESIAN_POINT('',(0.00772032397344724,0.00559361535803331,0.00400681946133871));
#465=CARTESIAN_POINT('',(0.00555839385580139,0.0058628631502915,-0.00143552385161011));
#466=CARTESIAN_POINT('',(0.0033901612821517,0.00610815977851713,-0.00687273702300856));
#467=CARTESIAN_POINT('',(0.0436005167766495,0.0133442963479137,0.052));
#468=CARTESIAN_POINT('',(0.0358974116100764,0.00859461942606941,0.0431580997164074));
#469=CARTESIAN_POINT('',(0.0281943064435033,0.00384494250422515,0.0343161994328147));
#470=CARTESIAN_POINT('',(0.0179495685530638,0.000747874007911213,0.019714841596864));
#471=CARTESIAN_POINT('',(0.014753954596533,0.000389768067710667,0.0146236376937612));
#472=CARTESIAN_POINT('',(0.0090136702829093,0.00167493112178282,0.00377608016450994));
#473=CARTESIAN_POINT('',(0.00644995939032027,0.00325965856112855,-0.00196081738752889));
#474=CARTESIAN_POINT('',(0.00387910827735681,0.0048224328572276,-0.00769041889178625));
#475=CARTESIAN_POINT('',(0.0467811316107547,0.00355537043489203,0.052));
#476=CARTESIAN_POINT('',(0.038587590877033,0.000498647420132295,0.0432640719713555));
#477=CARTESIAN_POINT('',(0.0303940501433111,-0.00255807559462744,0.034528143942711));
#478=CARTESIAN_POINT('',(0.0193613994576366,-0.00333434594646953,0.01986665588378));
#479=CARTESIAN_POINT('',(0.0158943989500137,-0.00295545464104065,0.0147187301150003));
#480=CARTESIAN_POINT('',(0.00958537204403389,-0.000304943106521155,0.00364885629675678));
#481=CARTESIAN_POINT('',(0.00672506473513132,0.00191131353609806,-0.00225045108349568));
#482=CARTESIAN_POINT('',(0.00385790206599118,0.00410680877690664,-0.00814126818953152));
#483=CARTESIAN_POINT('',(0.0499617464448603,-0.00623355547812951,0.052));
#484=CARTESIAN_POINT('',(0.0413402191059032,-0.00761442621603905,0.0433601705954844));
#485=CARTESIAN_POINT('',(0.032718691766946,-0.00899529695394859,0.0347203411909687));
#486=CARTESIAN_POINT('',(0.0208626938224915,-0.00744106544368239,0.020004325353047));
#487=CARTESIAN_POINT('',(0.0170908808294972,-0.00631602321014863,0.0148049625996317));
#488=CARTESIAN_POINT('',(0.0100821013656676,-0.00226428615386316,0.00353348611185886));
#489=CARTESIAN_POINT('',(0.00682949027646765,0.000609709126092105,-0.00251309907279598));
#490=CARTESIAN_POINT('',(0.00357101243930673,0.00346394202335205,-0.00855011102508276));
#491=CARTESIAN_POINT('',(0.,0.00433012701892219,-0.0075));
#492=CARTESIAN_POINT('',(0.0023511410091699,0.00713264409581034,-0.00588196601125011));
#493=CARTESIAN_POINT('',(0.0308780574402278,0.0525,0.052));
#494=CARTESIAN_POINT('',(0.0230168543046876,0.0357230785623928,0.0384575158294828));
#495=CARTESIAN_POINT('',(0.0124236205287836,0.0131156166046839,0.0202085661138604));
#496=CARTESIAN_POINT('',(0.00441626495811202,0.0083593112525792,-0.000532718824667003));
#497=CARTESIAN_POINT('',(0.0023511410091699,0.00713264409581034,-0.00588196601125011));
#498=CARTESIAN_POINT('',(-0.0308780574402278,0.0525,0.052));
#499=CARTESIAN_POINT('',(-0.0255496602297472,0.0411284453095416,0.0428207772228999));
#500=CARTESIAN_POINT('',(-0.0202212630192665,0.0297568906190831,0.0336415544457997));
#501=CARTESIAN_POINT('',(-0.0128938530038312,0.0172915520766298,0.0192315972773439));
#502=CARTESIAN_POINT('',(-0.0105627442904858,0.0139052023734017,0.0143209453740923));
#503=CARTESIAN_POINT('',(-0.00623108023271159,0.00941442016749337,0.0041810458182866));
#504=CARTESIAN_POINT('',(-0.00422085595233231,0.00824323986148927,-0.00103888266773103));
#505=CARTESIAN_POINT('',(-0.00220700579152756,0.007047028925977,-0.00625531643791859));
#506=CARTESIAN_POINT('',(-0.0205853716268185,0.0525,0.052));
#507=CARTESIAN_POINT('',(-0.0170075491470901,0.0410255749684767,0.0427613850037943));
#508=CARTESIAN_POINT('',(-0.0134297266673617,0.0295511499369533,0.0335227700075887));
#509=CARTESIAN_POINT('',(-0.00855928846370166,0.0171441815680756,0.0191465128745595));
#510=CARTESIAN_POINT('',(-0.00701889578764155,0.0138128934369583,0.014267650784788));
#511=CARTESIAN_POINT('',(-0.00418473649804291,0.00953792013132698,0.00425234855565084));
#512=CARTESIAN_POINT('',(-0.00288375588571782,0.00852439576522249,-0.000876557231026394));
#513=CARTESIAN_POINT('',(-0.00158007000187957,0.00748468148959587,-0.00600263761250166));
#514=CARTESIAN_POINT('',(-0.0102926858134093,0.0525,0.052));
#515=CARTESIAN_POINT('',(-0.00850351661880757,0.0409688553424715,0.042728637912452));
#516=CARTESIAN_POINT('',(-0.00671434742420584,0.0294377106849429,0.033457275824904));
#517=CARTESIAN_POINT('',(-0.00427927468976068,0.0170629258821038,0.0190995998823905));
#518=CARTESIAN_POINT('',(-0.00350921642256072,0.0137619970532406,0.0142382657439479));
#519=CARTESIAN_POINT('',(-0.00209267793401355,0.00960601431365187,0.00429166275014635));
#520=CARTESIAN_POINT('',(-0.00144258296139591,0.00867941671240524,-0.000787055845440412));
#521=CARTESIAN_POINT('',(-0.000791132446044141,0.00772599000934697,-0.00586331807366564));
#522=CARTESIAN_POINT('',(0.0102926858134093,0.0525,0.052));
#523=CARTESIAN_POINT('',(0.00850351661880758,0.0409688553424715,0.042728637912452));
#524=CARTESIAN_POINT('',(0.00671434742420584,0.0294377106849429,0.033457275824904));
#525=CARTESIAN_POINT('',(0.00427927468976067,0.0170629258821038,0.0190995998823905));
#526=CARTESIAN_POINT('',(0.00350921642256071,0.0137619970532406,0.0142382657439479));
#527=CARTESIAN_POINT('',(0.00209267793401355,0.00960601431365187,0.00429166275014635));
#528=CARTESIAN_POINT('',(0.00144258296139591,0.00867941671240524,-0.000787055845440412));
#529=CARTESIAN_POINT('',(0.000791132446044141,0.00772599000934697,-0.00586331807366564));
#530=CARTESIAN_POINT('',(0.0205853716268187,0.0525,0.052));
#531=CARTESIAN_POINT('',(0.0170075491470903,0.0410255749684767,0.0427613850037943));
#532=CARTESIAN_POINT('',(0.0134297266673619,0.0295511499369533,0.0335227700075887));
#533=CARTESIAN_POINT('',(0.00855928846370176,0.0171441815680756,0.0191465128745595));
#534=CARTESIAN_POINT('',(0.00701889578764161,0.0138128934369583,0.014267650784788));
#535=CARTESIAN_POINT('',(0.00418473649804293,0.009537920131327,0.00425234855565084));
#536=CARTESIAN_POINT('',(0.00288375588571784,0.0085243957652225,-0.000876557231026394));
#537=CARTESIAN_POINT('',(0.00158007000187957,0.00748468148959587,-0.00600263761250166));
#538=CARTESIAN_POINT('',(0.0308780574402278,0.0525,0.052));
#539=CARTESIAN_POINT('',(0.0255496602297472,0.0411284453095416,0.0428207772228999));
#540=CARTESIAN_POINT('',(0.0202212630192665,0.0297568906190831,0.0336415544457997));
#541=CARTESIAN_POINT('',(0.0128938530038312,0.0172915520766298,0.0192315972773439));
#542=CARTESIAN_POINT('',(0.0105627442904858,0.0139052023734017,0.0143209453740923));
#543=CARTESIAN_POINT('',(0.00623108023271158,0.00941442016749338,0.0041810458182866));
#544=CARTESIAN_POINT('',(0.00422085595233231,0.00824323986148928,-0.00103888266773103));
#545=CARTESIAN_POINT('',(0.00220700579152756,0.00704702892597699,-0.00625531643791859));
#546=CARTESIAN_POINT('',(0.,0.00433012701892219,-0.0075));
#547=CARTESIAN_POINT('',(-0.0023511410091699,0.00713264409581034,-0.00588196601125011));
#548=CARTESIAN_POINT('',(-0.0308780574402278,0.0525,0.052));
#549=CARTESIAN_POINT('',(-0.0230168543046876,0.0357230785623928,0.0384575158294828));
#550=CARTESIAN_POINT('',(-0.0124236205287836,0.0131156166046839,0.0202085661138604));
#551=CARTESIAN_POINT('',(-0.00441626495811202,0.0083593112525792,-0.000532718824667003));
#552=CARTESIAN_POINT('',(-0.0023511410091699,0.00713264409581034,-0.00588196601125011));
#553=CARTESIAN_POINT('',(-0.0499617464448603,-0.00623355547812948,0.052));
#554=CARTESIAN_POINT('',(-0.0413402189261229,-0.00761442624483362,0.0433601704153225));
#555=CARTESIAN_POINT('',(-0.0327186914073855,-0.00899529701153776,0.0347203408306449));
#556=CARTESIAN_POINT('',(-0.0208626932605907,-0.00744106531765903,0.0200043246126124));
#557=CARTESIAN_POINT('',(-0.0170908802133761,-0.00631602297836721,0.0148049617109108));
#558=CARTESIAN_POINT('',(-0.0100821006664345,-0.00226428562524548,0.00353348488523501));
#559=CARTESIAN_POINT('',(-0.00682948952904667,0.000609709780788447,-0.00251310045754972));
#560=CARTESIAN_POINT('',(-0.00357101162393839,0.00346394273756624,-0.0085501125357232));
#561=CARTESIAN_POINT('',(-0.0467811316107547,0.00355537043489208,0.052));
#562=CARTESIAN_POINT('',(-0.0385875907061773,0.000498647356392071,0.0432640717891897));
#563=CARTESIAN_POINT('',(-0.0303940498015998,-0.00255807572210797,0.0345281435783794));
#564=CARTESIAN_POINT('',(-0.0193613989383178,-0.00333434593129076,0.0198666551487604));
#565=CARTESIAN_POINT('',(-0.0158943983869477,-0.00295545453150263,0.0147187292372769));
#566=CARTESIAN_POINT('',(-0.00958537142307002,-0.000304942718631412,0.00364885509697073));
#567=CARTESIAN_POINT('',(-0.00672506407746917,0.00191131403969491,-0.00225045243471564));
#568=CARTESIAN_POINT('',(-0.00385790134854155,0.00410680932628502,-0.00814126966358965));
#569=CARTESIAN_POINT('',(-0.0436005167766495,0.0133442963479137,0.052));
#570=CARTESIAN_POINT('',(-0.0358974114494475,0.00859461932702684,0.0431580995320318));
#571=CARTESIAN_POINT('',(-0.0281943061222456,0.00384494230614,0.0343161990640636));
#572=CARTESIAN_POINT('',(-0.017949568072808,0.000747873913209046,0.0197148408678158));
#573=CARTESIAN_POINT('',(-0.0147539540793753,0.000389768056962409,0.0146236368281652));
#574=CARTESIAN_POINT('',(-0.00901366972277431,0.00167493137372068,0.00377607899431912));
#575=CARTESIAN_POINT('',(-0.00644995880062528,0.00325965891959356,-0.00196081870176964));
#576=CARTESIAN_POINT('',(-0.00387910763405319,0.00482243324828034,-0.00769042032550343));
#577=CARTESIAN_POINT('',(-0.0372392871084386,0.0329221481739569,0.052));
#578=CARTESIAN_POINT('',(-0.030641949120062,0.0248207680774771,0.0429659031735039));
#579=CARTESIAN_POINT('',(-0.0240446111316854,0.0167193879809973,0.0339318063470078));
#580=CARTESIAN_POINT('',(-0.0153048307592392,0.00896131490358574,0.0194395032204671));
#581=CARTESIAN_POINT('',(-0.012585138938468,0.00711090633976213,0.0144511726828777));
#582=CARTESIAN_POINT('',(-0.00772032350008981,0.00559361532851489,0.00400681834482322));
#583=CARTESIAN_POINT('',(-0.00555839335845797,0.00586286320655698,-0.0014355250987836));
#584=CARTESIAN_POINT('',(-0.00339016073959524,0.00610815983989766,-0.00687273838356146));
#585=CARTESIAN_POINT('',(-0.0340586722743333,0.0427110740869788,0.052));
#586=CARTESIAN_POINT('',(-0.0280763471978257,0.0329517947037009,0.0428801697311865));
#587=CARTESIAN_POINT('',(-0.0220940221213181,0.023192515320423,0.033760339462373));
#588=CARTESIAN_POINT('',(-0.0140714675320088,0.013093753526799,0.019316682764931));
#589=CARTESIAN_POINT('',(-0.0115564819908653,0.0104875846293694,0.014374241231288));
#590=CARTESIAN_POINT('',(-0.00699906176926743,0.00753140491664086,0.00410974474232794));
#591=CARTESIAN_POINT('',(-0.00494280464380247,0.00711539989072951,-0.00120120625343064));
#592=CARTESIAN_POINT('',(-0.00288136407619165,0.00667464691520388,-0.00650799324405725));
#593=CARTESIAN_POINT('',(-0.0308780574402278,0.0525,0.052));
#594=CARTESIAN_POINT('',(-0.0255496603987056,0.0411284456701228,0.0428207775139643));
#595=CARTESIAN_POINT('',(-0.0202212633571834,0.0297568913402455,0.0336415550279286));
#596=CARTESIAN_POINT('',(-0.0128938535319084,0.0172915529018408,0.0192315983570576));
#597=CARTESIAN_POINT('',(-0.0105627448695195,0.0139052031474851,0.0143209466316483));
#598=CARTESIAN_POINT('',(-0.00623108088985447,0.00941442067499599,0.0041810474544699));
#599=CARTESIAN_POINT('',(-0.00422085665476236,0.00824324027872713,-0.00103888084824122));
#600=CARTESIAN_POINT('',(-0.00220700655781488,0.00704702938114556,-0.00625531445302062));
#601=CARTESIAN_POINT('',(0.,0.00433012701892219,-0.0075));
#602=CARTESIAN_POINT('',(-0.00380422606518062,0.00325966074960292,-0.0081180339887499));
#603=CARTESIAN_POINT('',(-0.0499617464448603,-0.00623355547812948,0.052));
#604=CARTESIAN_POINT('',(-0.0372420525790888,-0.00827081086964762,0.0392533043441904));
#605=CARTESIAN_POINT('',(-0.0201018402789028,-0.0110160805505702,0.022076706230114));
#606=CARTESIAN_POINT('',(-0.00714566680555037,0.000332757280553189,-0.00192731590025552));
#607=CARTESIAN_POINT('',(-0.00380422606518062,0.00325966074960292,-0.0081180339887499));
#608=CARTESIAN_POINT('',(-3.46944695195361E-18,-0.0425328890437411,0.052));
#609=CARTESIAN_POINT('',(-1.0791504568685E-18,-0.0377391780962482,0.0436935340792154));
#610=CARTESIAN_POINT('',(1.31114603821661E-18,-0.0329454671487552,0.0353870681584308));
#611=CARTESIAN_POINT('',(2.79089563485074E-18,-0.0227266656195498,0.0204818979711366));
#612=CARTESIAN_POINT('',(2.93162306226544E-18,-0.0188134300790322,0.0151041022505074));
#613=CARTESIAN_POINT('',(2.16668656023649E-18,-0.00948212623550522,0.00313327315101766));
#614=CARTESIAN_POINT('',(1.29163020541436E-18,-0.00410807519312122,-0.00342421379766317));
#615=CARTESIAN_POINT('',(4.28051673813089E-19,0.00124946940135336,-0.00996837085507427));
#616=CARTESIAN_POINT('',(-0.00832695774081007,-0.0364830001161393,0.052));
#617=CARTESIAN_POINT('',(-0.00684089343244196,-0.032622152461533,0.0436935340792154));
#618=CARTESIAN_POINT('',(-0.00535482912407385,-0.0287613048069267,0.0353870681584308));
#619=CARTESIAN_POINT('',(-0.003406714071621,-0.0200412027171277,0.0204818979711366));
#620=CARTESIAN_POINT('',(-0.00280438255467844,-0.0166441753420782,0.0151041022505074));
#621=CARTESIAN_POINT('',(-0.0017393487161805,-0.00839468529801978,0.00313327315101766));
#622=CARTESIAN_POINT('',(-0.00127256215693609,-0.00358479498406213,-0.00342421379766317));
#623=CARTESIAN_POINT('',(-0.000804244010861752,0.00120913072076151,-0.00996837085507427));
#624=CARTESIAN_POINT('',(-0.01665391548162,-0.0304331111885373,0.052));
#625=CARTESIAN_POINT('',(-0.0136823038935143,-0.0275618469258481,0.0436607867147717));
#626=CARTESIAN_POINT('',(-0.0107106923054086,-0.024690582663159,0.0353215734295435));
#627=CARTESIAN_POINT('',(-0.0068141688309086,-0.017436996200376,0.0204349845749964));
#628=CARTESIAN_POINT('',(-0.00560922905644234,-0.0145258174473541,0.0150747169449451));
#629=CARTESIAN_POINT('',(-0.00347807671937864,-0.00723914967534128,0.00317258763584431));
#630=CARTESIAN_POINT('',(-0.00254371121870463,-0.00290649260965438,-0.00333471170876876));
#631=CARTESIAN_POINT('',(-0.00160628837085003,0.00141010249770005,-0.00982905019746082));
#632=CARTESIAN_POINT('',(-0.0333078309632402,-0.0183333333333333,0.052));
#633=CARTESIAN_POINT('',(-0.0274412830788194,-0.0175335353624883,0.0435420028400888));
#634=CARTESIAN_POINT('',(-0.0215747351943985,-0.0167337373916432,0.0350840056801775));
#635=CARTESIAN_POINT('',(-0.0137381815652594,-0.012360810094333,0.0202648165305525));
#636=CARTESIAN_POINT('',(-0.0112872614171086,-0.0103719250939962,0.0149681282006984));
#637=CARTESIAN_POINT('',(-0.00686410176843545,-0.00481726928033793,0.00331519229787444));
#638=CARTESIAN_POINT('',(-0.00487786057194523,-0.00129762332257292,-0.00301006253190511));
#639=CARTESIAN_POINT('',(-0.00288636874736379,0.00220472584037219,-0.00932369510046778));
#640=CARTESIAN_POINT('',(-0.0416347887040499,-0.0122834444057314,0.052));
#641=CARTESIAN_POINT('',(-0.0343596865620391,-0.0125650041008806,0.0434562695738019));
#642=CARTESIAN_POINT('',(-0.0270845844200282,-0.0128465637960298,0.0349125391476038));
#643=CARTESIAN_POINT('',(-0.0172559354038592,-0.00988807806257903,0.0201419963051073));
#644=CARTESIAN_POINT('',(-0.0141611963331742,-0.00833591932538474,0.0148911968729565));
#645=CARTESIAN_POINT('',(-0.00851039665365921,-0.00355155507178008,0.00341811841891743));
#646=CARTESIAN_POINT('',(-0.00593857937681954,-0.000368491931045383,-0.00277574424245602));
#647=CARTESIAN_POINT('',(-0.00336085335836273,0.00279614284652652,-0.0089589507846628));
#648=CARTESIAN_POINT('',(-0.0499617464448603,-0.00623355547812948,0.052));
#649=CARTESIAN_POINT('',(-0.0413402194633171,-0.00761442615879368,0.043360170953657));
#650=CARTESIAN_POINT('',(-0.0327186924817739,-0.00899529683945787,0.034720341907314));
#651=CARTESIAN_POINT('',(-0.0208626949395838,-0.00744106569422433,0.0200043268250751));
#652=CARTESIAN_POINT('',(-0.0170908820543827,-0.00631602367094389,0.0148049643664617));
#653=CARTESIAN_POINT('',(-0.0100821027557849,-0.00226428720478661,0.00353348855046025));
#654=CARTESIAN_POINT('',(-0.00682949176238516,0.000609707824516692,-0.00251309631982291));
#655=CARTESIAN_POINT('',(-0.00357101406030764,0.0034639406034516,-0.00855010802183941));
#656=CARTESIAN_POINT('',(0.,0.00433012701892219,-0.0075));
#657=CARTESIAN_POINT('',(0.,0.00433012701892219,-0.0075));
#658=CARTESIAN_POINT('',(0.,0.00433012701892219,-0.0075));
#659=CARTESIAN_POINT('',(0.,0.00519615242270663,-0.007));
#660=CARTESIAN_POINT('',(0.,0.0025801270189222,-0.00446891108675446));
#661=CARTESIAN_POINT('',(0.,0.0025801270189222,-0.00446891108675446));
#662=CARTESIAN_POINT('',(0.,0.00344615242270663,-0.00396891108675447));
#663=CARTESIAN_POINT('',(0.,0.0025801270189222,-0.00446891108675446));
#664=CARTESIAN_POINT('',(0.,0.00158012701892219,-0.00273686027918559));
#665=CARTESIAN_POINT('',(5.74627151417317E-18,-0.000843649727408209,-0.004136228436135));
#666=CARTESIAN_POINT('',(0.000931228324133639,-0.000590847083834542,-0.0039902727618159));
#667=CARTESIAN_POINT('',(0.00179815463914075,-0.00019641131202016,-0.00376254516278084));
#668=CARTESIAN_POINT('',(0.00260179225781939,0.000286678997020703,-0.0034836328428132));
#669=CARTESIAN_POINT('',(-2.16840434497101E-19,-0.000843649727408214,-0.004136228436135));
#670=CARTESIAN_POINT('',(0.00260179225781974,0.00028667899702028,-0.00348363284281344));
#671=CARTESIAN_POINT('',(0.,0.00158012701892219,-0.00273686027918559));
#672=CARTESIAN_POINT('',(-0.00260179225781484,0.000286678997012886,-0.00348363284281771));
#673=CARTESIAN_POINT('',(-0.00260179225781225,0.000286678997016418,-0.00348363284281568));
#674=CARTESIAN_POINT('',(-0.00180125991420581,-0.000194544639459533,-0.00376146743887548));
#675=CARTESIAN_POINT('',(-0.00092964723378146,-0.000591276305981682,-0.00399052057333809));
#676=CARTESIAN_POINT('',(-3.03576608295941E-18,-0.000843649727408208,-0.004136228436135));
#677=CARTESIAN_POINT('',(0.0474135981419069,-0.00553230394545046,0.0522953988728663));
#678=CARTESIAN_POINT('',(0.0433386129661155,-0.00612717731748823,0.0481267074946631));
#679=CARTESIAN_POINT('',(0.0372400287587949,-0.00700599554121634,0.0418831899417122));
#680=CARTESIAN_POINT('',(0.0293718535324721,-0.00735153632403593,0.033180862226434));
#681=CARTESIAN_POINT('',(0.0236578779045203,-0.00700150481742496,0.0263654056818907));
#682=CARTESIAN_POINT('',(0.0184866397555523,-0.0059067139666113,0.0195562901019553));
#683=CARTESIAN_POINT('',(0.0141280674179732,-0.00419937958861245,0.0131787566553));
#684=CARTESIAN_POINT('',(0.0107787323079532,-0.00225021507283449,0.0077670254027751));
#685=CARTESIAN_POINT('',(0.00815506746661649,-0.000452649415841278,0.00331992488638745));
#686=CARTESIAN_POINT('',(0.00564472135375338,0.00131602355518833,-0.000986545549914364));
#687=CARTESIAN_POINT('',(0.00390484992121429,0.00243196684328718,-0.00392108058535484));
#688=CARTESIAN_POINT('',(0.00287303628646912,0.00294176637922906,-0.00569641491450954));
#689=CARTESIAN_POINT('',(0.0394661598695654,-0.0113128990084747,0.0523248890051458));
#690=CARTESIAN_POINT('',(0.0360180591690391,-0.0113999087076891,0.0482045124515943));
#691=CARTESIAN_POINT('',(0.0308582392090008,-0.0115178164172423,0.042029598721169));
#692=CARTESIAN_POINT('',(0.0242393810014567,-0.0108997828893518,0.0333639175286559));
#693=CARTESIAN_POINT('',(0.0194617987233169,-0.00986402507019699,0.0265370677025365));
#694=CARTESIAN_POINT('',(0.0151758148444608,-0.008167026070863,0.0196696276981101));
#695=CARTESIAN_POINT('',(0.0116026297354218,-0.0059691881420585,0.0131932737250953));
#696=CARTESIAN_POINT('',(0.00889019455420596,-0.00365574225285348,0.00766553824003333));
#697=CARTESIAN_POINT('',(0.00678505532201152,-0.0015703314872463,0.00310918921342067));
#698=CARTESIAN_POINT('',(0.00477764683936902,0.000495239635570377,-0.00130681001502419));
#699=CARTESIAN_POINT('',(0.00338864424130584,0.00186915223558052,-0.00430813257318777));
#700=CARTESIAN_POINT('',(0.00252307937153056,0.00257513695734335,-0.00609086038698443));
#701=CARTESIAN_POINT('',(0.0235739350450005,-0.0228703388771959,0.0523640256829109));
#702=CARTESIAN_POINT('',(0.0214344180449078,-0.021959841551141,0.0483281557393445));
#703=CARTESIAN_POINT('',(0.0182330535407401,-0.0205841947634106,0.0422753616841742));
#704=CARTESIAN_POINT('',(0.0141646967363887,-0.0180603646677041,0.0336791574685845));
#705=CARTESIAN_POINT('',(0.0112583498063421,-0.0156567047659879,0.0268372299414831));
#706=CARTESIAN_POINT('',(0.0086928385783722,-0.0127421839282945,0.0198730116515669));
#707=CARTESIAN_POINT('',(0.00660216624858086,-0.00953681559093627,0.0132304943697347));
#708=CARTESIAN_POINT('',(0.00506312042484379,-0.00646040348807986,0.00751011777836906));
#709=CARTESIAN_POINT('',(0.00390171230674962,-0.0037741418067776,0.00277701188909997));
#710=CARTESIAN_POINT('',(0.00281843237599436,-0.00109949103586558,-0.00181152761455247));
#711=CARTESIAN_POINT('',(0.00209184949135627,0.00074827151501198,-0.00492260838124373));
#712=CARTESIAN_POINT('',(0.00163543321375904,0.00184778511704555,-0.00673845302545786));
#713=CARTESIAN_POINT('',(0.00767688125874487,-0.034419657537599,0.0523500941194457));
#714=CARTESIAN_POINT('',(0.00691155950077688,-0.0325905435164585,0.0483442934845676));
#715=CARTESIAN_POINT('',(0.0057669087361636,-0.0298404565215813,0.042339026229284));
#716=CARTESIAN_POINT('',(0.00431706575110339,-0.0254952378408694,0.0337776453381328));
#717=CARTESIAN_POINT('',(0.00328626357141586,-0.0217309418871117,0.0269399018367047));
#718=CARTESIAN_POINT('',(0.00238684149723884,-0.017534452021076,0.0199532733360789));
#719=CARTESIAN_POINT('',(0.00167419138288851,-0.0131951210394972,0.0132694575647544));
#720=CARTESIAN_POINT('',(0.00118098713445998,-0.0092025697520325,0.00750404675300027));
#721=CARTESIAN_POINT('',(0.000841774516236559,-0.00577801125144009,0.00273452068152128));
#722=CARTESIAN_POINT('',(0.000572544776894504,-0.00238983987145355,-0.00188277117675211));
#723=CARTESIAN_POINT('',(0.000447678738095208,-4.93335934885148E-5,-0.00500240288326105));
#724=CARTESIAN_POINT('',(0.000435058478057866,0.00133836171658047,-0.00681911140039647));
#725=CARTESIAN_POINT('',(-0.000274452926925297,-0.040193512465818,0.0523299261590667));
#726=CARTESIAN_POINT('',(-0.000351734246353741,-0.0379300441963496,0.0483224830003772));
#727=CARTESIAN_POINT('',(-0.000466025785394968,-0.0345298890038498,0.0423179975279091));
#728=CARTESIAN_POINT('',(-0.000603415386320654,-0.0292991131191408,0.0337629397018039));
#729=CARTESIAN_POINT('',(-0.000694143257123187,-0.0248553852443376,0.0269323900087067));
#730=CARTESIAN_POINT('',(-0.000759445572220093,-0.0199963775158582,0.0199555095656853));
#731=CARTESIAN_POINT('',(-0.000783894856613521,-0.0150499390767518,0.0132854765197809));
#732=CARTESIAN_POINT('',(-0.00075703896503541,-0.0105514575255001,0.00753712842414035));
#733=CARTESIAN_POINT('',(-0.000685410668153343,-0.0067142549538233,0.00278638485552522));
#734=CARTESIAN_POINT('',(-0.000544781440030204,-0.00293215460630316,-0.00180922743016014));
#735=CARTESIAN_POINT('',(-0.000355224901909813,-0.000333068894690076,-0.00491272865576129));
#736=CARTESIAN_POINT('',(-0.000153679400790898,0.00118064085706296,-0.00673419024971879));
#737=CARTESIAN_POINT('',(-1.82145964977565E-17,-0.0398026308559929,0.052));
#738=CARTESIAN_POINT('',(-9.9749581737536E-18,-0.0369433837624632,0.0470664188437089));
#739=CARTESIAN_POINT('',(-1.31204976131003E-17,-0.0311791739231999,0.0372234841413395));
#740=CARTESIAN_POINT('',(-2.3683590547388E-17,-0.021707079236151,0.0229759001465477));
#741=CARTESIAN_POINT('',(2.52386542592569E-17,-0.0114682123984062,0.00927177392698452));
#742=CARTESIAN_POINT('',(2.43535833771713E-18,-0.00437429328550164,0.000341234816927316));
#743=CARTESIAN_POINT('',(-2.65629532258949E-18,-0.000843649727408218,-0.00413622843613499));
#744=CARTESIAN_POINT('',(0.0468425757852132,-0.00577895484202784,0.052));
#745=CARTESIAN_POINT('',(0.0424890123146974,-0.00646302632233881,0.047638155128093));
#746=CARTESIAN_POINT('',(0.0359672642706642,-0.00744235350290127,0.0410602057413246));
#747=CARTESIAN_POINT('',(0.0276601242214519,-0.00774152579943238,0.0318951166345906));
#748=CARTESIAN_POINT('',(0.0197093952184158,-0.00709862477266071,0.0223511401943195));
#749=CARTESIAN_POINT('',(0.0127811705760727,-0.0047314084826094,0.0125422479234095));
#750=CARTESIAN_POINT('',(0.00696277616170101,-0.000634130819700645,0.00232984810125168));
#751=CARTESIAN_POINT('',(0.00431231940861389,0.00160649741222869,-0.00281186974403083));
#752=CARTESIAN_POINT('',(0.00297353467852142,0.00266169356873856,-0.00540540297103901));
#753=CARTESIAN_POINT('',(0.00297353467852175,0.00266169356874299,-0.00540540297103735));
#754=CARTESIAN_POINT('',(0.00260179225781974,0.000286678997018048,-0.00348363284280958));
#755=CARTESIAN_POINT('',(0.00267890556586351,0.00064877416474465,-0.00384213352110507));
#756=CARTESIAN_POINT('',(0.00281238799712035,0.00138091475746578,-0.00454669306563515));
#757=CARTESIAN_POINT('',(0.00293368793938626,0.00219372253834912,-0.00519084684967591));
#758=CARTESIAN_POINT('',(0.00297353467852132,0.00266169356874126,-0.00540540297104073));
#759=CARTESIAN_POINT('',(0.0291096203471144,0.0500331310430899,0.0523156922626052));
#760=CARTESIAN_POINT('',(0.0264964064573398,0.044599952936784,0.047866839926268));
#761=CARTESIAN_POINT('',(0.0225629643357975,0.0364904837717998,0.0411676851717825));
#762=CARTESIAN_POINT('',(0.0174622862491503,0.0267912818975095,0.0320388902995928));
#763=CARTESIAN_POINT('',(0.0139599242110731,0.0206872317303485,0.0254471147842955));
#764=CARTESIAN_POINT('',(0.0109943632284257,0.0161099735742784,0.0195012149834163));
#765=CARTESIAN_POINT('',(0.00872625334567909,0.0130714790863374,0.0146481833639751));
#766=CARTESIAN_POINT('',(0.00691426917188307,0.0109861638810344,0.0105239542554518));
#767=CARTESIAN_POINT('',(0.0053645116045373,0.00946163966667753,0.0067631264416683));
#768=CARTESIAN_POINT('',(0.00398084590663696,0.00823472609653229,0.0031863467403228));
#769=CARTESIAN_POINT('',(0.00262987646292499,0.00701460876767883,-0.000625528301996618));
#770=CARTESIAN_POINT('',(0.00188619650706597,0.00613644204486038,-0.0031912989646381));
#771=CARTESIAN_POINT('',(0.00163499510500086,0.00558260506069332,-0.00474051116471133));
#772=CARTESIAN_POINT('',(0.0321476241311627,0.0406850325504836,0.0523375786466594));
#773=CARTESIAN_POINT('',(0.0292288116717865,0.0360117422255931,0.0479188531218922));
#774=CARTESIAN_POINT('',(0.0248380827802442,0.0290405517865189,0.0412629620433535));
#775=CARTESIAN_POINT('',(0.0191901959231547,0.0208436007757217,0.0321565877183867));
#776=CARTESIAN_POINT('',(0.0153436663420702,0.0157938111598904,0.0255556289858099));
#777=CARTESIAN_POINT('',(0.0121204118318068,0.0121376892013072,0.0195729856214184));
#778=CARTESIAN_POINT('',(0.00968181366114677,0.00983072041082024,0.0146669286625798));
#779=CARTESIAN_POINT('',(0.00775267724535398,0.00835369069931239,0.0104783347784922));
#780=CARTESIAN_POINT('',(0.00611712443232807,0.00737919189416917,0.00664495171725336));
#781=CARTESIAN_POINT('',(0.00465850249945878,0.00668236584448889,0.00298824593239245));
#782=CARTESIAN_POINT('',(0.00321267464844782,0.00603881206607353,-0.000918168408026648));
#783=CARTESIAN_POINT('',(0.00234652693057264,0.0055710776439821,-0.00354965841066755));
#784=CARTESIAN_POINT('',(0.00198161162130942,0.00521029814184899,-0.00512055904862002));
#785=CARTESIAN_POINT('',(0.0382288644762984,0.0219972799079554,0.0523819528365292));
#786=CARTESIAN_POINT('',(0.0347365919101051,0.018884506603501,0.0480475697796154));
#787=CARTESIAN_POINT('',(0.0294870620771728,0.0142489928010231,0.0415138714662593));
#788=CARTESIAN_POINT('',(0.0227809816903282,0.00909077503944672,0.0324763262508936));
#789=CARTESIAN_POINT('',(0.0182450926798208,0.00614359762777178,0.025857559607861));
#790=CARTESIAN_POINT('',(0.0144774915210667,0.00429419940017108,0.0197848935930565));
#791=CARTESIAN_POINT('',(0.0116532061325545,0.0034010523405195,0.0147471177467189));
#792=CARTESIAN_POINT('',(0.00943865745860164,0.00308796580954328,0.0104032169263691));
#793=CARTESIAN_POINT('',(0.00757318877873076,0.00316055909053342,0.00640018820185187));
#794=CARTESIAN_POINT('',(0.00590640731808708,0.00347313382370589,0.00256691134796464));
#795=CARTESIAN_POINT('',(0.00420202640138686,0.00394542744595065,-0.00153113767898401));
#796=CARTESIAN_POINT('',(0.00308952527191786,0.00430148206268272,-0.00428471708628514));
#797=CARTESIAN_POINT('',(0.00242413943668423,0.00444648326994267,-0.00590682632247185));
#798=CARTESIAN_POINT('',(0.0443217011534706,0.00331175009835295,0.052413828649499));
#799=CARTESIAN_POINT('',(0.0403674057656593,0.00178916435120227,0.0481799503986801));
#800=CARTESIAN_POINT('',(0.0344230420644369,-0.000467689001605436,0.0417921483355765));
#801=CARTESIAN_POINT('',(0.026764158582409,-0.00256159856751298,0.0328399513418055));
#802=CARTESIAN_POINT('',(0.0215358249691348,-0.00340885485367401,0.0262066333896445));
#803=CARTESIAN_POINT('',(0.0171393684744545,-0.00347402677746354,0.0200435970313136));
#804=CARTESIAN_POINT('',(0.0137982448898702,-0.00298503192039725,0.0148774434906179));
#805=CARTESIAN_POINT('',(0.0111423296471576,-0.00217072784491405,0.010392944730255));
#806=CARTESIAN_POINT('',(0.00886890124581692,-0.00109407003326869,0.00624306038172591));
#807=CARTESIAN_POINT('',(0.00680605109357816,0.000174146888153355,0.00226494130671162));
#808=CARTESIAN_POINT('',(0.00467437512119101,0.00170381856581714,-0.00197319902072441));
#809=CARTESIAN_POINT('',(0.00327347035686175,0.00282803678881856,-0.00479437651352541));
#810=CARTESIAN_POINT('',(0.00245296553962387,0.00353210925562575,-0.00641874034142533));
#811=CARTESIAN_POINT('',(0.0473700852863362,-0.00603440942066311,0.0524235773405847));
#812=CARTESIAN_POINT('',(0.0432133634893385,-0.00676964924219478,0.0482348579590959));
#813=CARTESIAN_POINT('',(0.0369637329295379,-0.00784840288484098,0.041912574709774));
#814=CARTESIAN_POINT('',(0.0288558609879278,-0.00841604313637437,0.0329992133933225));
#815=CARTESIAN_POINT('',(0.023280879217614,-0.00821121356788546,0.026360792909651));
#816=CARTESIAN_POINT('',(0.0185484167467915,-0.00737604562311166,0.0201610389003474));
#817=CARTESIAN_POINT('',(0.014914721723627,-0.00618547065239555,0.0149432501190694));
#818=CARTESIAN_POINT('',(0.0119972192903413,-0.00479687167660078,0.0104033460545303));
#819=CARTESIAN_POINT('',(0.00947358209908811,-0.00320823419036976,0.00619508794868749));
#820=CARTESIAN_POINT('',(0.00716533554324832,-0.00145134254387128,0.00215958181472152));
#821=CARTESIAN_POINT('',(0.00477665648350536,0.000616064993392381,-0.00213460430354866));
#822=CARTESIAN_POINT('',(0.00321897581251597,0.00213290435746574,-0.00498313855586178));
#823=CARTESIAN_POINT('',(0.00233838746371332,0.00308664387591157,-0.00662467915724323));
#824=CARTESIAN_POINT('',(0.0290309766878855,0.0493160265908623,0.052));
#825=CARTESIAN_POINT('',(0.0267907674332358,0.0445558417508767,0.0481546184447951));
#826=CARTESIAN_POINT('',(0.0234190162846533,0.0374302834880542,0.0423626498344447));
#827=CARTESIAN_POINT('',(0.0188563665995334,0.0283626283438455,0.0342164399022619));
#828=CARTESIAN_POINT('',(0.0153742213689462,0.0218899074669726,0.0277417390838443));
#829=CARTESIAN_POINT('',(0.0118644774316658,0.0160215720551115,0.0208102283940906));
#830=CARTESIAN_POINT('',(0.00893481491351469,0.0118828521934767,0.0145180547676939));
#831=CARTESIAN_POINT('',(0.00659199253610701,0.00927802233451214,0.00893837083742522));
#832=CARTESIAN_POINT('',(0.00490233772988465,0.00778180371287063,0.00459135160175814));
#833=CARTESIAN_POINT('',(0.00328077368565212,0.00661036881609703,0.000123638029330259));
#834=CARTESIAN_POINT('',(0.00226333538862616,0.00598282266972185,-0.0029237347448165));
#835=CARTESIAN_POINT('',(0.00177783090275332,0.00562514867289045,-0.00444291782271653));
#836=CARTESIAN_POINT('',(0.00177783090275331,0.00562514867289046,-0.00444291782271654));
#837=CARTESIAN_POINT('',(0.00177783090275331,0.00562514867289046,-0.00444291782271654));
#838=CARTESIAN_POINT('',(0.00196168041947792,0.00544987966116727,-0.00454410943381552));
#839=CARTESIAN_POINT('',(0.00211575986648069,0.00525819477559394,-0.00465477875410084));
#840=CARTESIAN_POINT('',(0.00224544315349351,0.00505305730866749,-0.0047732149258517));
#841=CARTESIAN_POINT('',(0.00224544315349349,0.00505305730866752,-0.0047732149258517));
#842=CARTESIAN_POINT('',(0.0022454431534935,0.00505305730866751,-0.0047732149258517));
#843=CARTESIAN_POINT('',(0.0025285878143208,0.00470716665128233,-0.0048132655714287));
#844=CARTESIAN_POINT('',(0.00294390723154293,0.00390668723752514,-0.00488223358374131));
#845=CARTESIAN_POINT('',(0.00303223716353512,0.00304850563063515,-0.0051973594985783));
#846=CARTESIAN_POINT('',(0.00297353467852175,0.00266169356874298,-0.00540540297103734));
#847=CARTESIAN_POINT('',(-0.029565909645307,0.0497229931984273,0.0523285865376833));
#848=CARTESIAN_POINT('',(-0.027046349176873,0.04422937402936,0.0478914938273879));
#849=CARTESIAN_POINT('',(-0.0232745613092773,0.0360094890588077,0.0412099237999285));
#850=CARTESIAN_POINT('',(-0.0184116731115749,0.0261172479374731,0.0320792312729933));
#851=CARTESIAN_POINT('',(-0.0150802940454496,0.0198567430245693,0.0254611422191278));
#852=CARTESIAN_POINT('',(-0.0122563761556427,0.0151357876207768,0.0194524196354627));
#853=CARTESIAN_POINT('',(-0.0100789877530164,0.0120004063262826,0.0145179553474326));
#854=CARTESIAN_POINT('',(-0.00831287089210587,0.0098651289440497,0.0102969454984499));
#855=CARTESIAN_POINT('',(-0.00674794669580289,0.0083594270760825,0.00646485104428368));
#856=CARTESIAN_POINT('',(-0.00526368032938292,0.00723850382353053,0.00286280441196345));
#857=CARTESIAN_POINT('',(-0.00364139302662292,0.00626942077804405,-0.000913938125890921));
#858=CARTESIAN_POINT('',(-0.00247539475950705,0.00574886899056627,-0.00338389808612544));
#859=CARTESIAN_POINT('',(-0.00171782545807217,0.00551668546228667,-0.00479988754011736));
#860=CARTESIAN_POINT('',(-0.0197073712289857,0.0497116705525533,0.0523225042835728));
#861=CARTESIAN_POINT('',(-0.0180160038335399,0.0441703747450374,0.0478579554944019));
#862=CARTESIAN_POINT('',(-0.0154845249145233,0.0358813470973437,0.0411366930392938));
#863=CARTESIAN_POINT('',(-0.0122326462832763,0.0259471253224643,0.0319823835868655));
#864=CARTESIAN_POINT('',(-0.0100133856338239,0.0196907033112834,0.0253670707766042));
#865=CARTESIAN_POINT('',(-0.00814133983422513,0.0150081290083793,0.0193790612059658));
#866=CARTESIAN_POINT('',(-0.00670477002042932,0.0119300023703351,0.0144725645838193));
#867=CARTESIAN_POINT('',(-0.0055438606466701,0.00986212655102723,0.0102785299886585));
#868=CARTESIAN_POINT('',(-0.00451738767250705,0.00843385067141486,0.00647330819047357));
#869=CARTESIAN_POINT('',(-0.00354426324984504,0.00739534643960451,0.00289630239537252));
#870=CARTESIAN_POINT('',(-0.00247521246240312,0.00650834648335037,-0.0008600369071216));
#871=CARTESIAN_POINT('',(-0.00170015083764213,0.00602027360112229,-0.00332780838727551));
#872=CARTESIAN_POINT('',(-0.0011694317966617,0.00577271690057328,-0.00474351671540114));
#873=CARTESIAN_POINT('',(9.79797518838752E-18,0.0496993645001557,0.0523158717469556));
#874=CARTESIAN_POINT('',(-1.34983353180578E-17,0.0441064843070408,0.0478216191800767));
#875=CARTESIAN_POINT('',(1.91582904854056E-17,0.0357426579111556,0.0410574130756612));
#876=CARTESIAN_POINT('',(3.72355972070342E-17,0.0257631965198567,0.0318777254002607));
#877=CARTESIAN_POINT('',(5.55738902916914E-17,0.0195113866851532,0.0252657098403965));
#878=CARTESIAN_POINT('',(-8.27352923075956E-18,0.0148704070614881,0.0193003657613291));
#879=CARTESIAN_POINT('',(2.09569700105398E-17,0.0118538717105088,0.0144237049660153));
#880=CARTESIAN_POINT('',(1.15578490524999E-17,0.00985864818646173,0.0102567603717683));
#881=CARTESIAN_POINT('',(-4.52121043789391E-18,0.00851438949275841,0.00647650993874603));
#882=CARTESIAN_POINT('',(5.03306911566008E-17,0.00756712160850396,0.00292095880483375));
#883=CARTESIAN_POINT('',(-3.7961454896155E-17,0.00676876891364507,-0.000824679693750793));
#884=CARTESIAN_POINT('',(6.13977267178224E-17,0.00631900523420381,-0.00330518438688695));
#885=CARTESIAN_POINT('',(1.51868615420007E-17,0.00602829603915061,-0.00475260534830369));
#886=CARTESIAN_POINT('',(0.0197073712289857,0.0497116705525533,0.0523225042835727));
#887=CARTESIAN_POINT('',(0.0180160038335399,0.0441703747450374,0.0478579554944019));
#888=CARTESIAN_POINT('',(0.0154845249145233,0.0358813470973437,0.0411366930392938));
#889=CARTESIAN_POINT('',(0.0122326462832763,0.0259471253224643,0.0319823835868655));
#890=CARTESIAN_POINT('',(0.0100133856338238,0.0196907033112833,0.0253670707766042));
#891=CARTESIAN_POINT('',(0.00814133983422513,0.0150081290083793,0.0193790612059658));
#892=CARTESIAN_POINT('',(0.00670477002042927,0.0119300023703351,0.0144725645838193));
#893=CARTESIAN_POINT('',(0.00554386064667006,0.00986212655102723,0.0102785299886585));
#894=CARTESIAN_POINT('',(0.00451738767250705,0.00843385067141485,0.00647330819047357));
#895=CARTESIAN_POINT('',(0.00354426324984493,0.00739534643960451,0.00289630239537254));
#896=CARTESIAN_POINT('',(0.0024752124624032,0.00650834648335035,-0.000860036907121615));
#897=CARTESIAN_POINT('',(0.00170015083764201,0.00602027360112231,-0.0033278083872755));
#898=CARTESIAN_POINT('',(0.00116943179666168,0.00577271690057328,-0.00474351671540113));
#899=CARTESIAN_POINT('',(0.0295659096453071,0.0497229931984274,0.0523285865376833));
#900=CARTESIAN_POINT('',(0.027046349176873,0.04422937402936,0.0478914938273879));
#901=CARTESIAN_POINT('',(0.0232745613092773,0.0360094890588077,0.0412099237999285));
#902=CARTESIAN_POINT('',(0.0184116731115749,0.0261172479374731,0.0320792312729933));
#903=CARTESIAN_POINT('',(0.0150802940454495,0.0198567430245693,0.0254611422191278));
#904=CARTESIAN_POINT('',(0.0122563761556427,0.0151357876207768,0.0194524196354627));
#905=CARTESIAN_POINT('',(0.0100789877530164,0.0120004063262826,0.0145179553474326));
#906=CARTESIAN_POINT('',(0.00831287089210584,0.00986512894404971,0.0102969454984499));
#907=CARTESIAN_POINT('',(0.00674794669580287,0.00835942707608251,0.00646485104428369));
#908=CARTESIAN_POINT('',(0.00526368032938293,0.00723850382353054,0.00286280441196345));
#909=CARTESIAN_POINT('',(0.00364139302662292,0.00626942077804406,-0.000913938125890916));
#910=CARTESIAN_POINT('',(0.00247539475950708,0.00574886899056626,-0.00338389808612545));
#911=CARTESIAN_POINT('',(0.00171782545807217,0.00551668546228667,-0.00479988754011736));
#912=CARTESIAN_POINT('',(-0.0290309766878854,0.0493160265908624,0.052));
#913=CARTESIAN_POINT('',(-0.0267916031429238,0.0445576175370358,0.0481560529637416));
#914=CARTESIAN_POINT('',(-0.0234209416093096,0.0374343537740913,0.042365952620256));
#915=CARTESIAN_POINT('',(-0.0188604863892002,0.028370688253067,0.0342238684215399));
#916=CARTESIAN_POINT('',(-0.0153801660623373,0.0219004677400979,0.027753074032377));
#917=CARTESIAN_POINT('',(-0.0118694644144312,0.0160293276860811,0.0208205043957999));
#918=CARTESIAN_POINT('',(-0.00894732890166047,0.0119007526188457,0.0145446729026345));
#919=CARTESIAN_POINT('',(-0.00661432096935596,0.00930001648396132,0.00899385431698769));
#920=CARTESIAN_POINT('',(-0.00491176783379251,0.00778859389681452,0.00461715103512465));
#921=CARTESIAN_POINT('',(-0.00328554161026223,0.00661344157413696,0.000137498888916083));
#922=CARTESIAN_POINT('',(-0.00226482994997224,0.00598392372181449,-0.00291905814064103));
#923=CARTESIAN_POINT('',(-0.00177783090275336,0.00562514867289042,-0.00444291782271654));
#924=CARTESIAN_POINT('',(-0.0017778309027533,0.00562514867289045,-0.00444291782271653));
#925=CARTESIAN_POINT('',(-0.0017778309027533,0.00562514867289045,-0.00444291782271653));
#926=CARTESIAN_POINT('',(-0.000681080405260781,0.00613370040485755,-0.00414930534336848));
#927=CARTESIAN_POINT('',(0.000680517637715601,0.00613396135428082,-0.00414915468414871));
#928=CARTESIAN_POINT('',(0.00177783090275331,0.00562514867289045,-0.00444291782271654));
#929=CARTESIAN_POINT('',(-0.0473700852863363,-0.00603440942066304,0.0524235773405847));
#930=CARTESIAN_POINT('',(-0.0432133634893385,-0.00676964924219472,0.0482348579590959));
#931=CARTESIAN_POINT('',(-0.036963732929538,-0.00784840288484092,0.041912574709774));
#932=CARTESIAN_POINT('',(-0.0288558609879279,-0.00841604313637433,0.0329992133933225));
#933=CARTESIAN_POINT('',(-0.023280879217614,-0.00821121356788544,0.0263607929096511));
#934=CARTESIAN_POINT('',(-0.0185484167467916,-0.00737604562311164,0.0201610389003475));
#935=CARTESIAN_POINT('',(-0.014914721723627,-0.00618547065239556,0.0149432501190694));
#936=CARTESIAN_POINT('',(-0.0119972192903413,-0.00479687167660079,0.0104033460545304));
#937=CARTESIAN_POINT('',(-0.00947358209908813,-0.00320823419036975,0.00619508794868755));
#938=CARTESIAN_POINT('',(-0.00716533554324838,-0.00145134254387132,0.00215958181472164));
#939=CARTESIAN_POINT('',(-0.00477665648350538,0.000616064993392364,-0.00213460430354863));
#940=CARTESIAN_POINT('',(-0.00321897581251601,0.00213290435746569,-0.00498313855586168));
#941=CARTESIAN_POINT('',(-0.00233838746371336,0.00308664387591152,-0.00662467915724316));
#942=CARTESIAN_POINT('',(-0.0443217011534706,0.00331175009835299,0.052413828649499));
#943=CARTESIAN_POINT('',(-0.0403674057656593,0.0017891643512023,0.0481799503986801));
#944=CARTESIAN_POINT('',(-0.034423042064437,-0.000467689001605426,0.0417921483355765));
#945=CARTESIAN_POINT('',(-0.026764158582409,-0.00256159856751297,0.0328399513418056));
#946=CARTESIAN_POINT('',(-0.0215358249691349,-0.00340885485367403,0.0262066333896446));
#947=CARTESIAN_POINT('',(-0.0171393684744545,-0.00347402677746355,0.0200435970313136));
#948=CARTESIAN_POINT('',(-0.0137982448898702,-0.00298503192039726,0.014877443490618));
#949=CARTESIAN_POINT('',(-0.0111423296471576,-0.0021707278449141,0.0103929447302551));
#950=CARTESIAN_POINT('',(-0.00886890124581694,-0.00109407003326871,0.00624306038172595));
#951=CARTESIAN_POINT('',(-0.00680605109357819,0.000174146888153432,0.00226494130671178));
#952=CARTESIAN_POINT('',(-0.00467437512119105,0.00170381856581704,-0.00197319902072442));
#953=CARTESIAN_POINT('',(-0.00327347035686178,0.00282803678881856,-0.0047943765135253));
#954=CARTESIAN_POINT('',(-0.00245296553962391,0.00353210925562567,-0.00641874034142529));
#955=CARTESIAN_POINT('',(-0.0382288644762983,0.0219972799079555,0.0523819528365292));
#956=CARTESIAN_POINT('',(-0.034736591910105,0.0188845066035011,0.0480475697796153));
#957=CARTESIAN_POINT('',(-0.0294870620771728,0.0142489928010232,0.0415138714662594));
#958=CARTESIAN_POINT('',(-0.0227809816903282,0.00909077503944678,0.0324763262508935));
#959=CARTESIAN_POINT('',(-0.0182450926798208,0.00614359762777182,0.0258575596078609));
#960=CARTESIAN_POINT('',(-0.0144774915210668,0.0042941994001711,0.0197848935930566));
#961=CARTESIAN_POINT('',(-0.0116532061325546,0.00340105234051944,0.0147471177467189));
#962=CARTESIAN_POINT('',(-0.00943865745860168,0.00308796580954331,0.0104032169263692));
#963=CARTESIAN_POINT('',(-0.00757318877873078,0.0031605590905334,0.0064001882018519));
#964=CARTESIAN_POINT('',(-0.00590640731808718,0.00347313382370572,0.00256691134796469));
#965=CARTESIAN_POINT('',(-0.00420202640138686,0.00394542744595068,-0.00153113767898393));
#966=CARTESIAN_POINT('',(-0.00308952527191792,0.00430148206268263,-0.00428471708628509));
#967=CARTESIAN_POINT('',(-0.00242413943668424,0.0044464832699427,-0.00590682632247175));
#968=CARTESIAN_POINT('',(-0.0321476241311627,0.0406850325504836,0.0523375786466595));
#969=CARTESIAN_POINT('',(-0.0292288116717865,0.036011742225593,0.0479188531218922));
#970=CARTESIAN_POINT('',(-0.0248380827802442,0.0290405517865191,0.0412629620433535));
#971=CARTESIAN_POINT('',(-0.0191901959231547,0.0208436007757217,0.0321565877183868));
#972=CARTESIAN_POINT('',(-0.0153436663420702,0.0157938111598904,0.02555562898581));
#973=CARTESIAN_POINT('',(-0.0121204118318068,0.0121376892013072,0.0195729856214184));
#974=CARTESIAN_POINT('',(-0.00968181366114679,0.00983072041082028,0.0146669286625798));
#975=CARTESIAN_POINT('',(-0.00775267724535401,0.00835369069931239,0.0104783347784923));
#976=CARTESIAN_POINT('',(-0.00611712443232809,0.00737919189416917,0.0066449517172534));
#977=CARTESIAN_POINT('',(-0.00465850249945879,0.00668236584448894,0.00298824593239257));
#978=CARTESIAN_POINT('',(-0.00321267464844781,0.00603881206607356,-0.000918168408026626));
#979=CARTESIAN_POINT('',(-0.00234652693057265,0.00557107764398212,-0.00354965841066745));
#980=CARTESIAN_POINT('',(-0.00198161162130945,0.00521029814184898,-0.00512055904861997));
#981=CARTESIAN_POINT('',(-0.0291096203471144,0.0500331310430899,0.0523156922626053));
#982=CARTESIAN_POINT('',(-0.0264964064573397,0.044599952936784,0.047866839926268));
#983=CARTESIAN_POINT('',(-0.0225629643357976,0.0364904837717998,0.0411676851717826));
#984=CARTESIAN_POINT('',(-0.0174622862491503,0.0267912818975096,0.0320388902995929));
#985=CARTESIAN_POINT('',(-0.0139599242110731,0.0206872317303486,0.0254471147842955));
#986=CARTESIAN_POINT('',(-0.0109943632284258,0.0161099735742784,0.0195012149834164));
#987=CARTESIAN_POINT('',(-0.00872625334567912,0.0130714790863374,0.0146481833639751));
#988=CARTESIAN_POINT('',(-0.00691426917188311,0.0109861638810345,0.0105239542554518));
#989=CARTESIAN_POINT('',(-0.00536451160453733,0.00946163966667754,0.00676312644166835));
#990=CARTESIAN_POINT('',(-0.00398084590663701,0.00823472609653232,0.0031863467403229));
#991=CARTESIAN_POINT('',(-0.00262987646292501,0.00701460876767883,-0.000625528301996586));
#992=CARTESIAN_POINT('',(-0.00188619650706601,0.00613644204486039,-0.00319129896463803));
#993=CARTESIAN_POINT('',(-0.00163499510500088,0.00558260506069334,-0.00474051116471126));
#994=CARTESIAN_POINT('',(-0.00224544315349349,0.00505305730866752,-0.0047732149258517));
#995=CARTESIAN_POINT('',(-0.0025285878143213,0.00470716665128171,-0.00481326557142876));
#996=CARTESIAN_POINT('',(-0.00294390723154397,0.00390668723752284,-0.00488223358374152));
#997=CARTESIAN_POINT('',(-0.00303223716353531,0.00304850563063141,-0.00519735949857987));
#998=CARTESIAN_POINT('',(-0.00297353467852112,0.00266169356873876,-0.00540540297103961));
#999=CARTESIAN_POINT('',(-0.00297353467852111,0.00266169356873879,-0.0054054029710396));
#1000=CARTESIAN_POINT('',(-0.00224544315349349,0.00505305730866752,-0.0047732149258517));
#1001=CARTESIAN_POINT('',(-0.0022454431534935,0.0050530573086675,-0.0047732149258517));
#1002=CARTESIAN_POINT('',(-0.00211542623700358,0.00525872252213248,-0.00465447405949475));
#1003=CARTESIAN_POINT('',(-0.00196117776083108,0.00545035886005686,-0.0045438327682076));
#1004=CARTESIAN_POINT('',(-0.00177783090275333,0.00562514867289044,-0.00444291782271653));
#1005=CARTESIAN_POINT('',(-0.0468425757852132,-0.0057789548420278,0.052));
#1006=CARTESIAN_POINT('',(-0.0424888531666174,-0.00646305132913227,0.0476379956772794));
#1007=CARTESIAN_POINT('',(-0.0359642756896013,-0.00744238906198737,0.0410568515131177));
#1008=CARTESIAN_POINT('',(-0.0276636955424696,-0.0077415681386164,0.0318991938048003));
#1009=CARTESIAN_POINT('',(-0.0197039419693716,-0.00709860922725988,0.0223449734013814));
#1010=CARTESIAN_POINT('',(-0.0127724376467439,-0.0047261541316266,0.0125278216024758));
#1011=CARTESIAN_POINT('',(-0.00696240210559504,-0.000633559795250642,0.00232885316468047));
#1012=CARTESIAN_POINT('',(-0.00431186001778163,0.00160685949242699,-0.00281275968948725));
#1013=CARTESIAN_POINT('',(-0.00297353467852112,0.0026616935687388,-0.00540540297103959));
#1014=CARTESIAN_POINT('',(0.000274452926925271,-0.040193512465818,0.0523299261590668));
#1015=CARTESIAN_POINT('',(0.000351734246353698,-0.0379300441963496,0.0483224830003773));
#1016=CARTESIAN_POINT('',(0.000466025785394971,-0.0345298890038499,0.0423179975279094));
#1017=CARTESIAN_POINT('',(0.000603415386320649,-0.0292991131191411,0.0337629397018044));
#1018=CARTESIAN_POINT('',(0.000694143257123192,-0.0248553852443381,0.0269323900087073));
#1019=CARTESIAN_POINT('',(0.000759445572220075,-0.0199963775158588,0.0199555095656861));
#1020=CARTESIAN_POINT('',(0.000783894856613564,-0.0150499390767526,0.013285476519782));
#1021=CARTESIAN_POINT('',(0.000757038965035417,-0.0105514575255011,0.00753712842414155));
#1022=CARTESIAN_POINT('',(0.000685410668153364,-0.00671425495382443,0.00278638485552661));
#1023=CARTESIAN_POINT('',(0.000544781440030264,-0.00293215460630434,-0.00180922743015871));
#1024=CARTESIAN_POINT('',(0.000355224901909933,-0.000333068894691428,-0.00491272865575968));
#1025=CARTESIAN_POINT('',(0.00015367940079111,0.00118064085706161,-0.00673419024971718));
#1026=CARTESIAN_POINT('',(-0.00767688125874487,-0.034419657537599,0.0523500941194457));
#1027=CARTESIAN_POINT('',(-0.00691155950077683,-0.0325905435164586,0.0483442934845677));
#1028=CARTESIAN_POINT('',(-0.00576690873616367,-0.0298404565215814,0.0423390262292843));
#1029=CARTESIAN_POINT('',(-0.0043170657511034,-0.0254952378408696,0.0337776453381332));
#1030=CARTESIAN_POINT('',(-0.00328626357141599,-0.021730941887112,0.0269399018367053));
#1031=CARTESIAN_POINT('',(-0.00238684149723893,-0.0175344520210766,0.0199532733360797));
#1032=CARTESIAN_POINT('',(-0.0016741913828886,-0.0131951210394978,0.0132694575647554));
#1033=CARTESIAN_POINT('',(-0.00118098713446008,-0.00920256975203334,0.00750404675300147));
#1034=CARTESIAN_POINT('',(-0.000841774516236619,-0.00577801125144111,0.00273452068152266));
#1035=CARTESIAN_POINT('',(-0.000572544776894613,-0.00238983987145459,-0.00188277117675067));
#1036=CARTESIAN_POINT('',(-0.000447678738095261,-4.93335934897369E-5,-0.00500240288325942));
#1037=CARTESIAN_POINT('',(-0.000435058478057908,0.00133836171657924,-0.00681911140039485));
#1038=CARTESIAN_POINT('',(-0.0235739350450005,-0.0228703388771959,0.052364025682911));
#1039=CARTESIAN_POINT('',(-0.021434418044908,-0.0219598415511409,0.0483281557393446));
#1040=CARTESIAN_POINT('',(-0.0182330535407403,-0.0205841947634107,0.0422753616841745));
#1041=CARTESIAN_POINT('',(-0.014164696736389,-0.0180603646677042,0.033679157468585));
#1042=CARTESIAN_POINT('',(-0.0112583498063424,-0.0156567047659882,0.0268372299414837));
#1043=CARTESIAN_POINT('',(-0.00869283857837251,-0.0127421839282949,0.0198730116515677));
#1044=CARTESIAN_POINT('',(-0.00660216624858117,-0.00953681559093682,0.0132304943697358));
#1045=CARTESIAN_POINT('',(-0.00506312042484406,-0.00646040348808054,0.00751011777837026));
#1046=CARTESIAN_POINT('',(-0.00390171230674999,-0.00377414180677838,0.00277701188910137));
#1047=CARTESIAN_POINT('',(-0.00281843237599463,-0.00109949103586645,-0.00181152761455107));
#1048=CARTESIAN_POINT('',(-0.00209184949135668,0.000748271515011039,-0.0049226083812421));
#1049=CARTESIAN_POINT('',(-0.00163543321375942,0.00184778511704459,-0.00673845302545626));
#1050=CARTESIAN_POINT('',(-0.0394661598695654,-0.0113128990084747,0.0523248890051458));
#1051=CARTESIAN_POINT('',(-0.0360180591690391,-0.0113999087076892,0.0482045124515944));
#1052=CARTESIAN_POINT('',(-0.030858239209001,-0.0115178164172423,0.0420295987211693));
#1053=CARTESIAN_POINT('',(-0.024239381001457,-0.0108997828893519,0.0333639175286563));
#1054=CARTESIAN_POINT('',(-0.0194617987233173,-0.00986402507019707,0.0265370677025371));
#1055=CARTESIAN_POINT('',(-0.0151758148444613,-0.00816702607086324,0.0196696276981109));
#1056=CARTESIAN_POINT('',(-0.0116026297354224,-0.00596918814205886,0.0131932737250963));
#1057=CARTESIAN_POINT('',(-0.00889019455420654,-0.00365574225285396,0.00766553824003448));
#1058=CARTESIAN_POINT('',(-0.00678505532201214,-0.00157033148724691,0.00310918921342199));
#1059=CARTESIAN_POINT('',(-0.00477764683936966,0.000495239635569763,-0.00130681001502281));
#1060=CARTESIAN_POINT('',(-0.00338864424130654,0.0018691522355798,-0.00430813257318621));
#1061=CARTESIAN_POINT('',(-0.00252307937153129,0.00257513695734267,-0.00609086038698285));
#1062=CARTESIAN_POINT('',(-0.047413598141907,-0.00553230394545041,0.0522953988728663));
#1063=CARTESIAN_POINT('',(-0.0433386129661156,-0.00612717731748819,0.0481267074946632));
#1064=CARTESIAN_POINT('',(-0.0372400287587952,-0.00700599554121629,0.0418831899417125));
#1065=CARTESIAN_POINT('',(-0.0293718535324725,-0.00735153632403592,0.0331808622264345));
#1066=CARTESIAN_POINT('',(-0.0236578779045208,-0.00700150481742503,0.0263654056818913));
#1067=CARTESIAN_POINT('',(-0.0184866397555528,-0.00590671396661146,0.0195562901019561));
#1068=CARTESIAN_POINT('',(-0.0141280674179738,-0.00419937958861278,0.013178756655301));
#1069=CARTESIAN_POINT('',(-0.0107787323079539,-0.00225021507283492,0.00776702540277623));
#1070=CARTESIAN_POINT('',(-0.00815506746661725,-0.000452649415841816,0.00331992488638875));
#1071=CARTESIAN_POINT('',(-0.00564472135375416,0.00131602355518778,-0.00098654554991303));
#1072=CARTESIAN_POINT('',(-0.00390484992121521,0.00243196684328664,-0.0039210805853533));
#1073=CARTESIAN_POINT('',(-0.00287303628647005,0.00294176637922862,-0.00569641491450796));
#1074=CARTESIAN_POINT('',(-0.00297353467852112,0.00266169356873881,-0.00540540297103959));
#1075=CARTESIAN_POINT('',(-0.00293375121968293,0.00219446571950588,-0.00519118758458435));
#1076=CARTESIAN_POINT('',(-0.00281269246484341,0.00138265003147439,-0.00454833029143668));
#1077=CARTESIAN_POINT('',(-0.00267895590631219,0.000649010544607899,-0.00384236755444455));
#1078=CARTESIAN_POINT('',(-0.00260179225781973,0.000286678997018046,-0.00348363284280958));
#1079=CARTESIAN_POINT('',(0.,0.00333012701892219,-0.00576794919243112));
#1080=CARTESIAN_POINT('',(0.,0.00333012701892219,-0.00576794919243112));
#1081=CARTESIAN_POINT('',(0.,0.0025801270189222,-0.00446891108675446));
#1082=MECHANICAL_DESIGN_GEOMETRIC_PRESENTATION_REPRESENTATION('',(#278),
#1083);
#1083=(
GEOMETRIC_REPRESENTATION_CONTEXT(3)
GLOBAL_UNCERTAINTY_ASSIGNED_CONTEXT((#1084))
GLOBAL_UNIT_ASSIGNED_CONTEXT((#1087,#1086,#1085))
REPRESENTATION_CONTEXT('Bottom Support','TOP_LEVEL_ASSEMBLY_PART')
);
#1084=UNCERTAINTY_MEASURE_WITH_UNIT(LENGTH_MEASURE(2.E-5),#1087,
'DISTANCE_ACCURACY_VALUE','Maximum Tolerance applied to model');
#1085=(
NAMED_UNIT(*)
SI_UNIT($,.STERADIAN.)
SOLID_ANGLE_UNIT()
);
#1086=(
NAMED_UNIT(*)
PLANE_ANGLE_UNIT()
SI_UNIT($,.RADIAN.)
);
#1087=(
LENGTH_UNIT()
NAMED_UNIT(*)
SI_UNIT($,.METRE.)
);
#1088=PRODUCT_DEFINITION_SHAPE('','',#1089);
#1089=PRODUCT_DEFINITION('','',#1091,#1090);
#1090=PRODUCT_DEFINITION_CONTEXT('',#1097,'design');
#1091=PRODUCT_DEFINITION_FORMATION_WITH_SPECIFIED_SOURCE('','',#1093,
 .NOT_KNOWN.);
#1092=PRODUCT_RELATED_PRODUCT_CATEGORY('','',(#1093));
#1093=PRODUCT('Bottom Support','Bottom Support','Bottom Support',(#1095));
#1094=PRODUCT_CATEGORY('','');
#1095=PRODUCT_CONTEXT('',#1097,'mechanical');
#1096=APPLICATION_PROTOCOL_DEFINITION('international standard',
'automotive_design',2010,#1097);
#1097=APPLICATION_CONTEXT(
'core data for automotive mechanical design processes');
ENDSEC;
END-ISO-10303-21;
