ISO-10303-21;
HEADER;
/* Generated by software containing ST-Developer
 * from STEP Tools, Inc. (www.steptools.com) 
 */
/* OPTION: using custom renumber hook */

FILE_DESCRIPTION(
/* description */ ('STEP AP214',
'CAx-IF Rec.Pracs.---User Defined Attributes---1.5---2016-08-15'),
/* implementation_level */ '2;1');

FILE_NAME(
/* name */ '6a78a5d633a157fb62ad3ed4',
/* time_stamp */ '2026-08-09T16:07:51Z',
/* author */ (''),
/* organization */ (''),
/* preprocessor_version */ 'ST-DEVELOPER v20',
/* originating_system */ 'ONSHAPE BY PTC INC, 1.219',
/* authorisation */ '  ');

FILE_SCHEMA (('AUTOMOTIVE_DESIGN {1 0 10303 214 3 1 1}'));
ENDSEC;

DATA;
#10=PROPERTY_DEFINITION_REPRESENTATION(#14,#12);
#11=PROPERTY_DEFINITION_REPRESENTATION(#15,#13);
#12=REPRESENTATION('',(#16),#601);
#13=REPRESENTATION('',(#17),#601);
#14=PROPERTY_DEFINITION('pmi validation property','',#606);
#15=PROPERTY_DEFINITION('pmi validation property','',#606);
#16=VALUE_REPRESENTATION_ITEM('number of annotations',COUNT_MEASURE(0.));
#17=VALUE_REPRESENTATION_ITEM('number of views',COUNT_MEASURE(0.));
#18=SHAPE_REPRESENTATION_RELATIONSHIP('','',#254,#19);
#19=ADVANCED_BREP_SHAPE_REPRESENTATION('',(#252),#601);
#20=CYLINDRICAL_SURFACE('',#263,0.0015);
#21=CYLINDRICAL_SURFACE('',#266,0.0015);
#22=CYLINDRICAL_SURFACE('',#269,0.0015);
#23=CYLINDRICAL_SURFACE('',#272,0.0015);
#24=CYLINDRICAL_SURFACE('',#275,0.0015);
#25=CYLINDRICAL_SURFACE('',#278,0.0015);
#26=CIRCLE('',#257,0.0015);
#27=CIRCLE('',#258,0.0015);
#28=CIRCLE('',#259,0.0015);
#29=CIRCLE('',#260,0.0015);
#30=CIRCLE('',#261,0.0015);
#31=CIRCLE('',#262,0.0015);
#32=CIRCLE('',#264,0.0015);
#33=CIRCLE('',#267,0.0015);
#34=CIRCLE('',#270,0.0015);
#35=CIRCLE('',#273,0.0015);
#36=CIRCLE('',#276,0.0015);
#37=CIRCLE('',#279,0.0015);
#38=PLANE('',#256);
#39=PLANE('',#265);
#40=PLANE('',#268);
#41=PLANE('',#271);
#42=PLANE('',#274);
#43=PLANE('',#277);
#44=PLANE('',#280);
#45=LINE('',#383,#51);
#46=LINE('',#420,#52);
#47=LINE('',#457,#53);
#48=LINE('',#494,#54);
#49=LINE('',#531,#55);
#50=LINE('',#562,#56);
#51=VECTOR('',#283,1.);
#52=VECTOR('',#284,1.);
#53=VECTOR('',#285,1.);
#54=VECTOR('',#286,1.);
#55=VECTOR('',#287,1.);
#56=VECTOR('',#288,1.);
#57=ORIENTED_EDGE('',*,*,#105,.T.);
#58=ORIENTED_EDGE('',*,*,#106,.F.);
#59=ORIENTED_EDGE('',*,*,#107,.T.);
#60=ORIENTED_EDGE('',*,*,#106,.T.);
#61=ORIENTED_EDGE('',*,*,#108,.F.);
#62=ORIENTED_EDGE('',*,*,#109,.T.);
#63=ORIENTED_EDGE('',*,*,#108,.T.);
#64=ORIENTED_EDGE('',*,*,#110,.F.);
#65=ORIENTED_EDGE('',*,*,#111,.T.);
#66=ORIENTED_EDGE('',*,*,#110,.T.);
#67=ORIENTED_EDGE('',*,*,#112,.F.);
#68=ORIENTED_EDGE('',*,*,#113,.T.);
#69=ORIENTED_EDGE('',*,*,#112,.T.);
#70=ORIENTED_EDGE('',*,*,#114,.F.);
#71=ORIENTED_EDGE('',*,*,#115,.T.);
#72=ORIENTED_EDGE('',*,*,#114,.T.);
#73=ORIENTED_EDGE('',*,*,#105,.F.);
#74=ORIENTED_EDGE('',*,*,#116,.T.);
#75=ORIENTED_EDGE('',*,*,#117,.F.);
#76=ORIENTED_EDGE('',*,*,#118,.F.);
#77=ORIENTED_EDGE('',*,*,#119,.F.);
#78=ORIENTED_EDGE('',*,*,#120,.F.);
#79=ORIENTED_EDGE('',*,*,#121,.F.);
#80=ORIENTED_EDGE('',*,*,#122,.F.);
#81=ORIENTED_EDGE('',*,*,#107,.F.);
#82=ORIENTED_EDGE('',*,*,#109,.F.);
#83=ORIENTED_EDGE('',*,*,#111,.F.);
#84=ORIENTED_EDGE('',*,*,#113,.F.);
#85=ORIENTED_EDGE('',*,*,#115,.F.);
#86=ORIENTED_EDGE('',*,*,#116,.F.);
#87=ORIENTED_EDGE('',*,*,#123,.F.);
#88=ORIENTED_EDGE('',*,*,#122,.T.);
#89=ORIENTED_EDGE('',*,*,#123,.T.);
#90=ORIENTED_EDGE('',*,*,#124,.F.);
#91=ORIENTED_EDGE('',*,*,#121,.T.);
#92=ORIENTED_EDGE('',*,*,#124,.T.);
#93=ORIENTED_EDGE('',*,*,#125,.F.);
#94=ORIENTED_EDGE('',*,*,#120,.T.);
#95=ORIENTED_EDGE('',*,*,#125,.T.);
#96=ORIENTED_EDGE('',*,*,#126,.F.);
#97=ORIENTED_EDGE('',*,*,#119,.T.);
#98=ORIENTED_EDGE('',*,*,#126,.T.);
#99=ORIENTED_EDGE('',*,*,#127,.F.);
#100=ORIENTED_EDGE('',*,*,#118,.T.);
#101=ORIENTED_EDGE('',*,*,#127,.T.);
#102=ORIENTED_EDGE('',*,*,#128,.F.);
#103=ORIENTED_EDGE('',*,*,#117,.T.);
#104=ORIENTED_EDGE('',*,*,#128,.T.);
#105=EDGE_CURVE('',#129,#130,#148,.T.);
#106=EDGE_CURVE('',#131,#130,#149,.T.);
#107=EDGE_CURVE('',#131,#129,#45,.T.);
#108=EDGE_CURVE('',#132,#130,#150,.T.);
#109=EDGE_CURVE('',#132,#131,#46,.T.);
#110=EDGE_CURVE('',#133,#130,#151,.T.);
#111=EDGE_CURVE('',#133,#132,#47,.T.);
#112=EDGE_CURVE('',#134,#130,#152,.T.);
#113=EDGE_CURVE('',#134,#133,#48,.T.);
#114=EDGE_CURVE('',#135,#130,#153,.T.);
#115=EDGE_CURVE('',#135,#134,#49,.T.);
#116=EDGE_CURVE('',#129,#135,#50,.T.);
#117=EDGE_CURVE('',#136,#136,#26,.T.);
#118=EDGE_CURVE('',#137,#137,#27,.T.);
#119=EDGE_CURVE('',#138,#138,#28,.T.);
#120=EDGE_CURVE('',#139,#139,#29,.T.);
#121=EDGE_CURVE('',#140,#140,#30,.T.);
#122=EDGE_CURVE('',#141,#141,#31,.T.);
#123=EDGE_CURVE('',#142,#142,#32,.T.);
#124=EDGE_CURVE('',#143,#143,#33,.T.);
#125=EDGE_CURVE('',#144,#144,#34,.T.);
#126=EDGE_CURVE('',#145,#145,#35,.T.);
#127=EDGE_CURVE('',#146,#146,#36,.T.);
#128=EDGE_CURVE('',#147,#147,#37,.T.);
#129=VERTEX_POINT('',#375);
#130=VERTEX_POINT('',#376);
#131=VERTEX_POINT('',#382);
#132=VERTEX_POINT('',#419);
#133=VERTEX_POINT('',#456);
#134=VERTEX_POINT('',#493);
#135=VERTEX_POINT('',#530);
#136=VERTEX_POINT('',#565);
#137=VERTEX_POINT('',#567);
#138=VERTEX_POINT('',#569);
#139=VERTEX_POINT('',#571);
#140=VERTEX_POINT('',#573);
#141=VERTEX_POINT('',#575);
#142=VERTEX_POINT('',#578);
#143=VERTEX_POINT('',#582);
#144=VERTEX_POINT('',#586);
#145=VERTEX_POINT('',#590);
#146=VERTEX_POINT('',#594);
#147=VERTEX_POINT('',#598);
#148=B_SPLINE_CURVE_WITH_KNOTS('',3,(#370,#371,#372,#373,#374),
 .UNSPECIFIED.,.F.,.F.,(4,1,4),(0.,0.549760916666368,1.),.UNSPECIFIED.);
#149=B_SPLINE_CURVE_WITH_KNOTS('',3,(#377,#378,#379,#380,#381),
 .UNSPECIFIED.,.F.,.F.,(4,1,4),(0.,0.549760916666368,1.),.UNSPECIFIED.);
#150=B_SPLINE_CURVE_WITH_KNOTS('',3,(#414,#415,#416,#417,#418),
 .UNSPECIFIED.,.F.,.F.,(4,1,4),(0.,0.549760916666368,1.),.UNSPECIFIED.);
#151=B_SPLINE_CURVE_WITH_KNOTS('',3,(#451,#452,#453,#454,#455),
 .UNSPECIFIED.,.F.,.F.,(4,1,4),(0.,0.549760916666368,1.),.UNSPECIFIED.);
#152=B_SPLINE_CURVE_WITH_KNOTS('',3,(#488,#489,#490,#491,#492),
 .UNSPECIFIED.,.F.,.F.,(4,1,4),(0.,0.549760916666368,1.),.UNSPECIFIED.);
#153=B_SPLINE_CURVE_WITH_KNOTS('',3,(#525,#526,#527,#528,#529),
 .UNSPECIFIED.,.F.,.F.,(4,1,4),(0.,0.549760916666368,1.),.UNSPECIFIED.);
#154=EDGE_LOOP('',(#57,#58,#59));
#155=EDGE_LOOP('',(#60,#61,#62));
#156=EDGE_LOOP('',(#63,#64,#65));
#157=EDGE_LOOP('',(#66,#67,#68));
#158=EDGE_LOOP('',(#69,#70,#71));
#159=EDGE_LOOP('',(#72,#73,#74));
#160=EDGE_LOOP('',(#75));
#161=EDGE_LOOP('',(#76));
#162=EDGE_LOOP('',(#77));
#163=EDGE_LOOP('',(#78));
#164=EDGE_LOOP('',(#79));
#165=EDGE_LOOP('',(#80));
#166=EDGE_LOOP('',(#81,#82,#83,#84,#85,#86));
#167=EDGE_LOOP('',(#87));
#168=EDGE_LOOP('',(#88));
#169=EDGE_LOOP('',(#89));
#170=EDGE_LOOP('',(#90));
#171=EDGE_LOOP('',(#91));
#172=EDGE_LOOP('',(#92));
#173=EDGE_LOOP('',(#93));
#174=EDGE_LOOP('',(#94));
#175=EDGE_LOOP('',(#95));
#176=EDGE_LOOP('',(#96));
#177=EDGE_LOOP('',(#97));
#178=EDGE_LOOP('',(#98));
#179=EDGE_LOOP('',(#99));
#180=EDGE_LOOP('',(#100));
#181=EDGE_LOOP('',(#101));
#182=EDGE_LOOP('',(#102));
#183=EDGE_LOOP('',(#103));
#184=EDGE_LOOP('',(#104));
#185=FACE_BOUND('',#154,.T.);
#186=FACE_BOUND('',#155,.T.);
#187=FACE_BOUND('',#156,.T.);
#188=FACE_BOUND('',#157,.T.);
#189=FACE_BOUND('',#158,.T.);
#190=FACE_BOUND('',#159,.T.);
#191=FACE_BOUND('',#160,.T.);
#192=FACE_BOUND('',#161,.T.);
#193=FACE_BOUND('',#162,.T.);
#194=FACE_BOUND('',#163,.T.);
#195=FACE_BOUND('',#164,.T.);
#196=FACE_BOUND('',#165,.T.);
#197=FACE_BOUND('',#166,.T.);
#198=FACE_BOUND('',#167,.T.);
#199=FACE_BOUND('',#168,.T.);
#200=FACE_BOUND('',#169,.T.);
#201=FACE_BOUND('',#170,.T.);
#202=FACE_BOUND('',#171,.T.);
#203=FACE_BOUND('',#172,.T.);
#204=FACE_BOUND('',#173,.T.);
#205=FACE_BOUND('',#174,.T.);
#206=FACE_BOUND('',#175,.T.);
#207=FACE_BOUND('',#176,.T.);
#208=FACE_BOUND('',#177,.T.);
#209=FACE_BOUND('',#178,.T.);
#210=FACE_BOUND('',#179,.T.);
#211=FACE_BOUND('',#180,.T.);
#212=FACE_BOUND('',#181,.T.);
#213=FACE_BOUND('',#182,.T.);
#214=FACE_BOUND('',#183,.T.);
#215=FACE_BOUND('',#184,.T.);
#216=B_SPLINE_SURFACE_WITH_KNOTS('',3,3,((#340,#341,#342,#343,#344),(#345,
#346,#347,#348,#349),(#350,#351,#352,#353,#354),(#355,#356,#357,#358,#359),
(#360,#361,#362,#363,#364),(#365,#366,#367,#368,#369)),.RULED_SURF.,.F.,
 .F.,.F.,(4,1,1,4),(4,1,4),(0.,0.333333333333334,0.666666666666667,1.),
(0.,0.549760916666368,1.),.UNSPECIFIED.);
#217=B_SPLINE_SURFACE_WITH_KNOTS('',3,3,((#384,#385,#386,#387,#388),(#389,
#390,#391,#392,#393),(#394,#395,#396,#397,#398),(#399,#400,#401,#402,#403),
(#404,#405,#406,#407,#408),(#409,#410,#411,#412,#413)),.RULED_SURF.,.F.,
 .F.,.F.,(4,1,1,4),(4,1,4),(0.,0.333333333333334,0.666666666666667,1.),
(0.,0.549760916666368,1.),.UNSPECIFIED.);
#218=B_SPLINE_SURFACE_WITH_KNOTS('',3,3,((#421,#422,#423,#424,#425),(#426,
#427,#428,#429,#430),(#431,#432,#433,#434,#435),(#436,#437,#438,#439,#440),
(#441,#442,#443,#444,#445),(#446,#447,#448,#449,#450)),.RULED_SURF.,.F.,
 .F.,.F.,(4,1,1,4),(4,1,4),(0.,0.333333333333334,0.666666666666667,1.),
(0.,0.549760916666368,1.),.UNSPECIFIED.);
#219=B_SPLINE_SURFACE_WITH_KNOTS('',3,3,((#458,#459,#460,#461,#462),(#463,
#464,#465,#466,#467),(#468,#469,#470,#471,#472),(#473,#474,#475,#476,#477),
(#478,#479,#480,#481,#482),(#483,#484,#485,#486,#487)),.RULED_SURF.,.F.,
 .F.,.F.,(4,1,1,4),(4,1,4),(0.,0.333333333333334,0.666666666666667,1.),
(0.,0.549760916666368,1.),.UNSPECIFIED.);
#220=B_SPLINE_SURFACE_WITH_KNOTS('',3,3,((#495,#496,#497,#498,#499),(#500,
#501,#502,#503,#504),(#505,#506,#507,#508,#509),(#510,#511,#512,#513,#514),
(#515,#516,#517,#518,#519),(#520,#521,#522,#523,#524)),.RULED_SURF.,.F.,
 .F.,.F.,(4,1,1,4),(4,1,4),(0.,0.333333333333334,0.666666666666667,1.),
(0.,0.549760916666368,1.),.UNSPECIFIED.);
#221=B_SPLINE_SURFACE_WITH_KNOTS('',3,3,((#532,#533,#534,#535,#536),(#537,
#538,#539,#540,#541),(#542,#543,#544,#545,#546),(#547,#548,#549,#550,#551),
(#552,#553,#554,#555,#556),(#557,#558,#559,#560,#561)),.RULED_SURF.,.F.,
 .F.,.F.,(4,1,1,4),(4,1,4),(0.,0.333333333333334,0.666666666666667,1.),
(0.,0.549760916666368,1.),.UNSPECIFIED.);
#222=ADVANCED_FACE('',(#185),#216,.T.);
#223=ADVANCED_FACE('',(#186),#217,.T.);
#224=ADVANCED_FACE('',(#187),#218,.T.);
#225=ADVANCED_FACE('',(#188),#219,.T.);
#226=ADVANCED_FACE('',(#189),#220,.T.);
#227=ADVANCED_FACE('',(#190),#221,.T.);
#228=ADVANCED_FACE('',(#191,#192,#193,#194,#195,#196,#197),#38,.F.);
#229=ADVANCED_FACE('',(#198,#199),#20,.T.);
#230=ADVANCED_FACE('',(#200),#39,.T.);
#231=ADVANCED_FACE('',(#201,#202),#21,.T.);
#232=ADVANCED_FACE('',(#203),#40,.T.);
#233=ADVANCED_FACE('',(#204,#205),#22,.T.);
#234=ADVANCED_FACE('',(#206),#41,.T.);
#235=ADVANCED_FACE('',(#207,#208),#23,.T.);
#236=ADVANCED_FACE('',(#209),#42,.T.);
#237=ADVANCED_FACE('',(#210,#211),#24,.T.);
#238=ADVANCED_FACE('',(#212),#43,.T.);
#239=ADVANCED_FACE('',(#213,#214),#25,.T.);
#240=ADVANCED_FACE('',(#215),#44,.T.);
#241=CLOSED_SHELL('',(#222,#223,#224,#225,#226,#227,#228,#229,#230,#231,
#232,#233,#234,#235,#236,#237,#238,#239,#240));
#242=STYLED_ITEM('',(#243),#252);
#243=PRESENTATION_STYLE_ASSIGNMENT((#244));
#244=SURFACE_STYLE_USAGE(.BOTH.,#245);
#245=SURFACE_SIDE_STYLE('',(#248,#246));
#246=SURFACE_STYLE_RENDERING_WITH_PROPERTIES(.CONSTANT_SHADING.,#251,(#247));
#247=SURFACE_STYLE_TRANSPARENT(0.188235294117647);
#248=SURFACE_STYLE_FILL_AREA(#249);
#249=FILL_AREA_STYLE('',(#250));
#250=FILL_AREA_STYLE_COLOUR('',#251);
#251=COLOUR_RGB('',0.654901960784314,0.823529411764706,0.576470588235294);
#252=MANIFOLD_SOLID_BREP('Windmill Head Cover',#241);
#253=SHAPE_DEFINITION_REPRESENTATION(#606,#254);
#254=SHAPE_REPRESENTATION('Windmill Head Cover',(#255),#601);
#255=AXIS2_PLACEMENT_3D('',#339,#281,#282);
#256=AXIS2_PLACEMENT_3D('',#563,#289,#290);
#257=AXIS2_PLACEMENT_3D('',#564,#291,#292);
#258=AXIS2_PLACEMENT_3D('',#566,#293,#294);
#259=AXIS2_PLACEMENT_3D('',#568,#295,#296);
#260=AXIS2_PLACEMENT_3D('',#570,#297,#298);
#261=AXIS2_PLACEMENT_3D('',#572,#299,#300);
#262=AXIS2_PLACEMENT_3D('',#574,#301,#302);
#263=AXIS2_PLACEMENT_3D('',#576,#303,#304);
#264=AXIS2_PLACEMENT_3D('',#577,#305,#306);
#265=AXIS2_PLACEMENT_3D('',#579,#307,#308);
#266=AXIS2_PLACEMENT_3D('',#580,#309,#310);
#267=AXIS2_PLACEMENT_3D('',#581,#311,#312);
#268=AXIS2_PLACEMENT_3D('',#583,#313,#314);
#269=AXIS2_PLACEMENT_3D('',#584,#315,#316);
#270=AXIS2_PLACEMENT_3D('',#585,#317,#318);
#271=AXIS2_PLACEMENT_3D('',#587,#319,#320);
#272=AXIS2_PLACEMENT_3D('',#588,#321,#322);
#273=AXIS2_PLACEMENT_3D('',#589,#323,#324);
#274=AXIS2_PLACEMENT_3D('',#591,#325,#326);
#275=AXIS2_PLACEMENT_3D('',#592,#327,#328);
#276=AXIS2_PLACEMENT_3D('',#593,#329,#330);
#277=AXIS2_PLACEMENT_3D('',#595,#331,#332);
#278=AXIS2_PLACEMENT_3D('',#596,#333,#334);
#279=AXIS2_PLACEMENT_3D('',#597,#335,#336);
#280=AXIS2_PLACEMENT_3D('',#599,#337,#338);
#281=DIRECTION('',(0.,0.,1.));
#282=DIRECTION('',(1.,0.,0.));
#283=DIRECTION('',(0.5,0.866025403784439,0.));
#284=DIRECTION('',(1.,-3.91908156192302E-16,0.));
#285=DIRECTION('',(0.5,-0.866025403784439,0.));
#286=DIRECTION('',(-0.5,-0.866025403784439,0.));
#287=DIRECTION('',(-1.,0.,0.));
#288=DIRECTION('',(-0.5,0.866025403784439,0.));
#289=DIRECTION('',(0.,0.,1.));
#290=DIRECTION('',(1.,0.,0.));
#291=DIRECTION('',(0.,0.,-1.));
#292=DIRECTION('',(-1.,0.,0.));
#293=DIRECTION('',(0.,0.,-1.));
#294=DIRECTION('',(-1.,0.,0.));
#295=DIRECTION('',(0.,0.,-1.));
#296=DIRECTION('',(-1.,0.,0.));
#297=DIRECTION('',(0.,0.,-1.));
#298=DIRECTION('',(-1.,0.,0.));
#299=DIRECTION('',(0.,0.,-1.));
#300=DIRECTION('',(-1.,0.,0.));
#301=DIRECTION('',(0.,0.,-1.));
#302=DIRECTION('',(-1.,0.,0.));
#303=DIRECTION('',(0.,0.,1.));
#304=DIRECTION('',(1.,0.,0.));
#305=DIRECTION('',(0.,0.,-1.));
#306=DIRECTION('',(-1.,0.,0.));
#307=DIRECTION('',(0.,0.,-1.));
#308=DIRECTION('',(1.,0.,0.));
#309=DIRECTION('',(0.,0.,1.));
#310=DIRECTION('',(1.,0.,0.));
#311=DIRECTION('',(0.,0.,-1.));
#312=DIRECTION('',(-1.,0.,0.));
#313=DIRECTION('',(0.,0.,-1.));
#314=DIRECTION('',(1.,0.,0.));
#315=DIRECTION('',(0.,0.,1.));
#316=DIRECTION('',(1.,0.,0.));
#317=DIRECTION('',(0.,0.,-1.));
#318=DIRECTION('',(-1.,0.,0.));
#319=DIRECTION('',(0.,0.,-1.));
#320=DIRECTION('',(1.,0.,0.));
#321=DIRECTION('',(0.,0.,1.));
#322=DIRECTION('',(1.,0.,0.));
#323=DIRECTION('',(0.,0.,-1.));
#324=DIRECTION('',(-1.,0.,0.));
#325=DIRECTION('',(0.,0.,-1.));
#326=DIRECTION('',(1.,0.,0.));
#327=DIRECTION('',(0.,0.,1.));
#328=DIRECTION('',(1.,0.,0.));
#329=DIRECTION('',(0.,0.,-1.));
#330=DIRECTION('',(-1.,0.,0.));
#331=DIRECTION('',(0.,0.,-1.));
#332=DIRECTION('',(1.,0.,0.));
#333=DIRECTION('',(0.,0.,1.));
#334=DIRECTION('',(1.,0.,0.));
#335=DIRECTION('',(0.,0.,-1.));
#336=DIRECTION('',(-1.,0.,0.));
#337=DIRECTION('',(0.,0.,-1.));
#338=DIRECTION('',(1.,0.,0.));
#339=CARTESIAN_POINT('',(0.,0.,0.));
#340=CARTESIAN_POINT('',(0.0132790561913614,-0.023,0.));
#341=CARTESIAN_POINT('',(0.00763598644353643,-0.0203546498603559,0.00109577979151774));
#342=CARTESIAN_POINT('',(-0.00262860235634286,-0.0155428306504982,0.00308897312028748));
#343=CARTESIAN_POINT('',(-0.000816072004243568,-0.00482540424190199,0.00578578837279214));
#344=CARTESIAN_POINT('',(0.,0.,0.007));
#345=CARTESIAN_POINT('',(0.0147545068792904,-0.0204444444444444,0.));
#346=CARTESIAN_POINT('',(0.00917039207047391,-0.0184890628411076,0.00109577979151774));
#347=CARTESIAN_POINT('',(-0.000986959315429274,-0.014932277438475,0.00308897312028748));
#348=CARTESIAN_POINT('',(-0.000306409931006002,-0.00463585279368435,0.00578578837279214));
#349=CARTESIAN_POINT('',(0.,0.,0.007));
#350=CARTESIAN_POINT('',(0.0177054082551486,-0.0153333333333333,0.));
#351=CARTESIAN_POINT('',(0.0122392033243489,-0.0147578888026111,0.00109577979151774));
#352=CARTESIAN_POINT('',(0.00229632676639788,-0.0137111710144286,0.00308897312028748));
#353=CARTESIAN_POINT('',(0.000712914215469132,-0.00425674989724907,0.00578578837279214));
#354=CARTESIAN_POINT('',(0.,0.,0.007));
#355=CARTESIAN_POINT('',(0.0221317603189357,-0.00766666666666669,0.));
#356=CARTESIAN_POINT('',(0.0168424202051613,-0.00916112774486647,0.00109577979151774));
#357=CARTESIAN_POINT('',(0.00722125588913863,-0.0118795113783591,0.00308897312028748));
#358=CARTESIAN_POINT('',(0.00224190043518183,-0.00368809555259614,0.00578578837279215));
#359=CARTESIAN_POINT('',(0.,0.,0.007));
#360=CARTESIAN_POINT('',(0.0250826616947937,-0.00255555555555557,0.));
#361=CARTESIAN_POINT('',(0.0199112314590363,-0.00542995370637001,0.00109577979151774));
#362=CARTESIAN_POINT('',(0.0105045419709658,-0.0106584049543128,0.00308897312028748));
#363=CARTESIAN_POINT('',(0.00326122458165696,-0.00330899265616086,0.00578578837279214));
#364=CARTESIAN_POINT('',(0.,0.,0.007));
#365=CARTESIAN_POINT('',(0.0265581123827228,-5.20417042793042E-18,0.));
#366=CARTESIAN_POINT('',(0.0214456370859737,-0.00356436668712178,0.00109577979151774));
#367=CARTESIAN_POINT('',(0.0121461850118794,-0.0100478517422896,0.00308897312028748));
#368=CARTESIAN_POINT('',(0.00377088665489454,-0.00311944120794322,0.00578578837279214));
#369=CARTESIAN_POINT('',(0.,0.,0.007));
#370=CARTESIAN_POINT('',(0.0265581123827228,-5.20417042793042E-18,0.));
#371=CARTESIAN_POINT('',(0.0214456370859737,-0.00356436668712178,0.00109577979151774));
#372=CARTESIAN_POINT('',(0.0121461850118794,-0.0100478517422896,0.00308897312028748));
#373=CARTESIAN_POINT('',(0.00377088665489453,-0.00311944120794322,0.00578578837279214));
#374=CARTESIAN_POINT('',(0.,0.,0.007));
#375=CARTESIAN_POINT('',(0.0265581123827228,-6.07153216591882E-18,0.));
#376=CARTESIAN_POINT('',(0.,0.,0.007));
#377=CARTESIAN_POINT('',(0.0132790561913614,-0.023,0.));
#378=CARTESIAN_POINT('',(0.00763598644353643,-0.0203546498603559,0.00109577979151774));
#379=CARTESIAN_POINT('',(-0.00262860235634286,-0.0155428306504982,0.00308897312028748));
#380=CARTESIAN_POINT('',(-0.00081607200424357,-0.004825404241902,0.00578578837279214));
#381=CARTESIAN_POINT('',(0.,0.,0.007));
#382=CARTESIAN_POINT('',(0.0132790561913614,-0.023,0.));
#383=CARTESIAN_POINT('',(0.0199185842870421,-0.0115,0.));
#384=CARTESIAN_POINT('',(-0.0132790561913614,-0.023,0.));
#385=CARTESIAN_POINT('',(-0.0138096506424373,-0.016790283173234,0.00109577979151774));
#386=CARTESIAN_POINT('',(-0.0147747873682222,-0.00549497890820852,0.00308897312028748));
#387=CARTESIAN_POINT('',(-0.00458695865913811,-0.00170596303395878,0.00578578837279214));
#388=CARTESIAN_POINT('',(0.,0.,0.007));
#389=CARTESIAN_POINT('',(-0.0103281548155033,-0.023,0.));
#390=CARTESIAN_POINT('',(-0.0114268020773291,-0.0171863239162476,0.00109577979151774));
#391=CARTESIAN_POINT('',(-0.0134252112557912,-0.00661140687957403,0.00308897312028748));
#392=CARTESIAN_POINT('',(-0.00416797125303872,-0.00205256761261914,0.00578578837279214));
#393=CARTESIAN_POINT('',(0.,0.,0.007));
#394=CARTESIAN_POINT('',(-0.00442635206378714,-0.023,0.));
#395=CARTESIAN_POINT('',(-0.00666110494711273,-0.0179784054022747,0.00109577979151774));
#396=CARTESIAN_POINT('',(-0.0107260590309291,-0.00884426282230506,0.00308897312028748));
#397=CARTESIAN_POINT('',(-0.00332999644083993,-0.00274577676993986,0.00578578837279214));
#398=CARTESIAN_POINT('',(0.,0.,0.007));
#399=CARTESIAN_POINT('',(0.00442635206378713,-0.023,0.));
#400=CARTESIAN_POINT('',(0.000487440748211846,-0.0191665276313152,0.00109577979151774));
#401=CARTESIAN_POINT('',(-0.00667733069363599,-0.0121935467364016,0.00308897312028748));
#402=CARTESIAN_POINT('',(-0.00207303422254175,-0.00378559050592093,0.00578578837279215));
#403=CARTESIAN_POINT('',(0.,0.,0.007));
#404=CARTESIAN_POINT('',(0.0103281548155033,-0.023,0.));
#405=CARTESIAN_POINT('',(0.00525313787842823,-0.0199586091173423,0.00109577979151774));
#406=CARTESIAN_POINT('',(-0.0039781784687739,-0.0144264026791326,0.00308897312028748));
#407=CARTESIAN_POINT('',(-0.00123505941034296,-0.00447879966324164,0.00578578837279214));
#408=CARTESIAN_POINT('',(0.,0.,0.007));
#409=CARTESIAN_POINT('',(0.0132790561913614,-0.023,0.));
#410=CARTESIAN_POINT('',(0.00763598644353643,-0.0203546498603559,0.00109577979151774));
#411=CARTESIAN_POINT('',(-0.00262860235634286,-0.0155428306504982,0.00308897312028748));
#412=CARTESIAN_POINT('',(-0.00081607200424357,-0.004825404241902,0.00578578837279214));
#413=CARTESIAN_POINT('',(0.,0.,0.007));
#414=CARTESIAN_POINT('',(-0.0132790561913614,-0.023,0.));
#415=CARTESIAN_POINT('',(-0.0138096506424373,-0.016790283173234,0.00109577979151774));
#416=CARTESIAN_POINT('',(-0.0147747873682222,-0.00549497890820851,0.00308897312028748));
#417=CARTESIAN_POINT('',(-0.00458695865913811,-0.00170596303395878,0.00578578837279214));
#418=CARTESIAN_POINT('',(0.,0.,0.007));
#419=CARTESIAN_POINT('',(-0.0132790561913614,-0.023,0.));
#420=CARTESIAN_POINT('',(-1.38777878078145E-17,-0.023,0.));
#421=CARTESIAN_POINT('',(-0.0265581123827228,4.33680868994202E-17,0.));
#422=CARTESIAN_POINT('',(-0.0214456370859737,0.0035643666871218,0.00109577979151774));
#423=CARTESIAN_POINT('',(-0.0121461850118794,0.0100478517422896,0.00308897312028748));
#424=CARTESIAN_POINT('',(-0.00377088665489453,0.00311944120794321,0.00578578837279214));
#425=CARTESIAN_POINT('',(0.,0.,0.007));
#426=CARTESIAN_POINT('',(-0.0250826616947938,-0.00255555555555552,0.));
#427=CARTESIAN_POINT('',(-0.0205971941478031,0.00130273892486004,0.00109577979151774));
#428=CARTESIAN_POINT('',(-0.0124382519403619,0.00832087055890094,0.00308897312028748));
#429=CARTESIAN_POINT('',(-0.00386156132203271,0.00258328518106522,0.00578578837279214));
#430=CARTESIAN_POINT('',(0.,0.,0.007));
#431=CARTESIAN_POINT('',(-0.0221317603189357,-0.00766666666666664,0.));
#432=CARTESIAN_POINT('',(-0.0189003082714616,-0.00322051659966348,0.00109577979151774));
#433=CARTESIAN_POINT('',(-0.013022385797327,0.00486690819212358,0.00308897312028748));
#434=CARTESIAN_POINT('',(-0.00404291065630906,0.00151097312730921,0.00578578837279214));
#435=CARTESIAN_POINT('',(0.,0.,0.007));
#436=CARTESIAN_POINT('',(-0.0177054082551486,-0.0153333333333333,0.));
#437=CARTESIAN_POINT('',(-0.0163549794569495,-0.0100053998864488,0.00109577979151774));
#438=CARTESIAN_POINT('',(-0.0138985865827746,-0.000314035358042465,0.00308897312028748));
#439=CARTESIAN_POINT('',(-0.00431493465772358,-9.74949533247831E-5,0.00578578837279215));
#440=CARTESIAN_POINT('',(0.,0.,0.007));
#441=CARTESIAN_POINT('',(-0.0147545068792904,-0.0204444444444444,0.));
#442=CARTESIAN_POINT('',(-0.014658093580608,-0.0145286554109723,0.00109577979151774));
#443=CARTESIAN_POINT('',(-0.0144827204397397,-0.00376799772481983,0.00308897312028748));
#444=CARTESIAN_POINT('',(-0.00449628399199993,-0.00116980700708078,0.00578578837279214));
#445=CARTESIAN_POINT('',(0.,0.,0.007));
#446=CARTESIAN_POINT('',(-0.0132790561913614,-0.023,0.));
#447=CARTESIAN_POINT('',(-0.0138096506424373,-0.016790283173234,0.00109577979151774));
#448=CARTESIAN_POINT('',(-0.0147747873682222,-0.00549497890820851,0.00308897312028748));
#449=CARTESIAN_POINT('',(-0.00458695865913811,-0.00170596303395878,0.00578578837279214));
#450=CARTESIAN_POINT('',(0.,0.,0.007));
#451=CARTESIAN_POINT('',(-0.0265581123827228,2.08166817117217E-17,0.));
#452=CARTESIAN_POINT('',(-0.0214456370859737,0.00356436668712179,0.00109577979151774));
#453=CARTESIAN_POINT('',(-0.0121461850118794,0.0100478517422896,0.00308897312028748));
#454=CARTESIAN_POINT('',(-0.00377088665489454,0.00311944120794322,0.00578578837279214));
#455=CARTESIAN_POINT('',(0.,0.,0.007));
#456=CARTESIAN_POINT('',(-0.0265581123827228,3.12250225675825E-17,0.));
#457=CARTESIAN_POINT('',(-0.0199185842870421,-0.0115,0.));
#458=CARTESIAN_POINT('',(-0.0132790561913614,0.023,0.));
#459=CARTESIAN_POINT('',(-0.00763598644353642,0.0203546498603559,0.00109577979151774));
#460=CARTESIAN_POINT('',(0.00262860235634286,0.0155428306504982,0.00308897312028748));
#461=CARTESIAN_POINT('',(0.00081607200424357,0.00482540424190199,0.00578578837279214));
#462=CARTESIAN_POINT('',(0.,0.,0.007));
#463=CARTESIAN_POINT('',(-0.0147545068792904,0.0204444444444445,0.));
#464=CARTESIAN_POINT('',(-0.0091703920704739,0.0184890628411076,0.00109577979151774));
#465=CARTESIAN_POINT('',(0.000986959315429277,0.014932277438475,0.00308897312028748));
#466=CARTESIAN_POINT('',(0.000306409931006003,0.00463585279368435,0.00578578837279214));
#467=CARTESIAN_POINT('',(0.,0.,0.007));
#468=CARTESIAN_POINT('',(-0.0177054082551485,0.0153333333333334,0.));
#469=CARTESIAN_POINT('',(-0.0122392033243489,0.0147578888026112,0.00109577979151774));
#470=CARTESIAN_POINT('',(-0.00229632676639789,0.0137111710144286,0.00308897312028748));
#471=CARTESIAN_POINT('',(-0.000712914215469132,0.00425674989724906,0.00578578837279214));
#472=CARTESIAN_POINT('',(0.,0.,0.007));
#473=CARTESIAN_POINT('',(-0.0221317603189357,0.0076666666666667,0.));
#474=CARTESIAN_POINT('',(-0.0168424202051613,0.00916112774486647,0.00109577979151774));
#475=CARTESIAN_POINT('',(-0.00722125588913863,0.0118795113783591,0.00308897312028748));
#476=CARTESIAN_POINT('',(-0.00224190043518183,0.00368809555259614,0.00578578837279215));
#477=CARTESIAN_POINT('',(0.,0.,0.007));
#478=CARTESIAN_POINT('',(-0.0250826616947937,0.00255555555555558,0.));
#479=CARTESIAN_POINT('',(-0.0199112314590363,0.00542995370637002,0.00109577979151774));
#480=CARTESIAN_POINT('',(-0.0105045419709658,0.0106584049543128,0.00308897312028748));
#481=CARTESIAN_POINT('',(-0.00326122458165696,0.00330899265616086,0.00578578837279214));
#482=CARTESIAN_POINT('',(0.,0.,0.007));
#483=CARTESIAN_POINT('',(-0.0265581123827228,2.08166817117217E-17,0.));
#484=CARTESIAN_POINT('',(-0.0214456370859737,0.00356436668712179,0.00109577979151774));
#485=CARTESIAN_POINT('',(-0.0121461850118794,0.0100478517422896,0.00308897312028748));
#486=CARTESIAN_POINT('',(-0.00377088665489454,0.00311944120794322,0.00578578837279214));
#487=CARTESIAN_POINT('',(0.,0.,0.007));
#488=CARTESIAN_POINT('',(-0.0132790561913614,0.023,0.));
#489=CARTESIAN_POINT('',(-0.00763598644353642,0.0203546498603558,0.00109577979151774));
#490=CARTESIAN_POINT('',(0.00262860235634287,0.0155428306504982,0.00308897312028748));
#491=CARTESIAN_POINT('',(0.000816072004243572,0.00482540424190199,0.00578578837279214));
#492=CARTESIAN_POINT('',(0.,0.,0.007));
#493=CARTESIAN_POINT('',(-0.0132790561913614,0.023,0.));
#494=CARTESIAN_POINT('',(-0.0199185842870421,0.0115,0.));
#495=CARTESIAN_POINT('',(0.0132790561913614,0.023,0.));
#496=CARTESIAN_POINT('',(0.0138096506424373,0.016790283173234,0.00109577979151774));
#497=CARTESIAN_POINT('',(0.0147747873682222,0.00549497890820851,0.00308897312028748));
#498=CARTESIAN_POINT('',(0.00458695865913811,0.00170596303395878,0.00578578837279214));
#499=CARTESIAN_POINT('',(0.,0.,0.007));
#500=CARTESIAN_POINT('',(0.0103281548155033,0.023,0.));
#501=CARTESIAN_POINT('',(0.0114268020773291,0.0171863239162476,0.00109577979151774));
#502=CARTESIAN_POINT('',(0.0134252112557912,0.00661140687957402,0.00308897312028748));
#503=CARTESIAN_POINT('',(0.00416797125303872,0.00205256761261914,0.00578578837279214));
#504=CARTESIAN_POINT('',(0.,0.,0.007));
#505=CARTESIAN_POINT('',(0.00442635206378714,0.023,0.));
#506=CARTESIAN_POINT('',(0.00666110494711273,0.0179784054022747,0.00109577979151774));
#507=CARTESIAN_POINT('',(0.0107260590309291,0.00884426282230505,0.00308897312028748));
#508=CARTESIAN_POINT('',(0.00332999644083993,0.00274577676993985,0.00578578837279214));
#509=CARTESIAN_POINT('',(0.,0.,0.007));
#510=CARTESIAN_POINT('',(-0.00442635206378712,0.023,0.));
#511=CARTESIAN_POINT('',(-0.000487440748211842,0.0191665276313152,0.00109577979151774));
#512=CARTESIAN_POINT('',(0.00667733069363599,0.0121935467364016,0.00308897312028748));
#513=CARTESIAN_POINT('',(0.00207303422254175,0.00378559050592093,0.00578578837279215));
#514=CARTESIAN_POINT('',(0.,0.,0.007));
#515=CARTESIAN_POINT('',(-0.0103281548155033,0.023,0.));
#516=CARTESIAN_POINT('',(-0.00525313787842823,0.0199586091173423,0.00109577979151774));
#517=CARTESIAN_POINT('',(0.0039781784687739,0.0144264026791326,0.00308897312028748));
#518=CARTESIAN_POINT('',(0.00123505941034296,0.00447879966324164,0.00578578837279214));
#519=CARTESIAN_POINT('',(0.,0.,0.007));
#520=CARTESIAN_POINT('',(-0.0132790561913614,0.023,0.));
#521=CARTESIAN_POINT('',(-0.00763598644353642,0.0203546498603558,0.00109577979151774));
#522=CARTESIAN_POINT('',(0.00262860235634287,0.0155428306504982,0.00308897312028748));
#523=CARTESIAN_POINT('',(0.000816072004243572,0.00482540424190199,0.00578578837279214));
#524=CARTESIAN_POINT('',(0.,0.,0.007));
#525=CARTESIAN_POINT('',(0.0132790561913614,0.023,0.));
#526=CARTESIAN_POINT('',(0.0138096506424373,0.016790283173234,0.00109577979151774));
#527=CARTESIAN_POINT('',(0.0147747873682222,0.00549497890820851,0.00308897312028748));
#528=CARTESIAN_POINT('',(0.00458695865913811,0.00170596303395878,0.00578578837279214));
#529=CARTESIAN_POINT('',(0.,0.,0.007));
#530=CARTESIAN_POINT('',(0.0132790561913614,0.023,0.));
#531=CARTESIAN_POINT('',(0.,0.023,0.));
#532=CARTESIAN_POINT('',(0.0265581123827228,-5.20417042793042E-18,0.));
#533=CARTESIAN_POINT('',(0.0214456370859737,-0.00356436668712178,0.00109577979151774));
#534=CARTESIAN_POINT('',(0.0121461850118794,-0.0100478517422896,0.00308897312028748));
#535=CARTESIAN_POINT('',(0.00377088665489453,-0.00311944120794322,0.00578578837279214));
#536=CARTESIAN_POINT('',(0.,0.,0.007));
#537=CARTESIAN_POINT('',(0.0250826616947937,0.00255555555555556,0.));
#538=CARTESIAN_POINT('',(0.020597194147803,-0.00130273892486002,0.00109577979151774));
#539=CARTESIAN_POINT('',(0.0124382519403619,-0.00832087055890096,0.00308897312028748));
#540=CARTESIAN_POINT('',(0.00386156132203271,-0.00258328518106522,0.00578578837279214));
#541=CARTESIAN_POINT('',(0.,0.,0.007));
#542=CARTESIAN_POINT('',(0.0221317603189357,0.00766666666666667,0.));
#543=CARTESIAN_POINT('',(0.0189003082714616,0.00322051659966349,0.00109577979151774));
#544=CARTESIAN_POINT('',(0.013022385797327,-0.00486690819212359,0.00308897312028748));
#545=CARTESIAN_POINT('',(0.00404291065630906,-0.00151097312730922,0.00578578837279214));
#546=CARTESIAN_POINT('',(0.,0.,0.007));
#547=CARTESIAN_POINT('',(0.0177054082551486,0.0153333333333333,0.));
#548=CARTESIAN_POINT('',(0.0163549794569495,0.0100053998864488,0.00109577979151774));
#549=CARTESIAN_POINT('',(0.0138985865827746,0.000314035358042457,0.00308897312028748));
#550=CARTESIAN_POINT('',(0.00431493465772358,9.74949533247807E-5,0.00578578837279215));
#551=CARTESIAN_POINT('',(0.,0.,0.007));
#552=CARTESIAN_POINT('',(0.0147545068792904,0.0204444444444444,0.));
#553=CARTESIAN_POINT('',(0.014658093580608,0.0145286554109723,0.00109577979151774));
#554=CARTESIAN_POINT('',(0.0144827204397397,0.00376799772481983,0.00308897312028748));
#555=CARTESIAN_POINT('',(0.00449628399199993,0.00116980700708078,0.00578578837279214));
#556=CARTESIAN_POINT('',(0.,0.,0.007));
#557=CARTESIAN_POINT('',(0.0132790561913614,0.023,0.));
#558=CARTESIAN_POINT('',(0.0138096506424373,0.016790283173234,0.00109577979151774));
#559=CARTESIAN_POINT('',(0.0147747873682222,0.00549497890820851,0.00308897312028748));
#560=CARTESIAN_POINT('',(0.00458695865913811,0.00170596303395878,0.00578578837279214));
#561=CARTESIAN_POINT('',(0.,0.,0.007));
#562=CARTESIAN_POINT('',(0.0199185842870421,0.0115,0.));
#563=CARTESIAN_POINT('',(-6.93889390390723E-18,3.46944695195361E-18,0.));
#564=CARTESIAN_POINT('',(-0.0219393102292058,1.50704101975485E-17,0.));
#565=CARTESIAN_POINT('',(-0.0234393102292058,1.50704101975485E-17,0.));
#566=CARTESIAN_POINT('',(-0.0109696551146029,-0.019,0.));
#567=CARTESIAN_POINT('',(-0.0124696551146029,-0.019,0.));
#568=CARTESIAN_POINT('',(0.0109696551146029,-0.019,0.));
#569=CARTESIAN_POINT('',(0.0094696551146029,-0.019,0.));
#570=CARTESIAN_POINT('',(0.0219393102292058,-1.07197075395049E-17,0.));
#571=CARTESIAN_POINT('',(0.0204393102292058,-1.07197075395049E-17,0.));
#572=CARTESIAN_POINT('',(0.0109696551146029,0.019,0.));
#573=CARTESIAN_POINT('',(0.0094696551146029,0.019,0.));
#574=CARTESIAN_POINT('',(-0.0109696551146029,0.019,0.));
#575=CARTESIAN_POINT('',(-0.0124696551146029,0.019,0.));
#576=CARTESIAN_POINT('',(-0.0109696551146029,0.019,-0.003));
#577=CARTESIAN_POINT('',(-0.0109696551146029,0.019,-0.003));
#578=CARTESIAN_POINT('',(-0.0124696551146029,0.019,-0.003));
#579=CARTESIAN_POINT('',(-1.38777878078145E-17,3.46944695195361E-18,-0.003));
#580=CARTESIAN_POINT('',(0.0109696551146029,0.019,-0.003));
#581=CARTESIAN_POINT('',(0.0109696551146029,0.019,-0.003));
#582=CARTESIAN_POINT('',(0.0094696551146029,0.019,-0.003));
#583=CARTESIAN_POINT('',(-1.38777878078145E-17,3.46944695195361E-18,-0.003));
#584=CARTESIAN_POINT('',(0.0219393102292058,-1.07197075395049E-17,-0.003));
#585=CARTESIAN_POINT('',(0.0219393102292058,-1.07197075395049E-17,-0.003));
#586=CARTESIAN_POINT('',(0.0204393102292058,-1.07197075395049E-17,-0.003));
#587=CARTESIAN_POINT('',(-1.38777878078145E-17,3.46944695195361E-18,-0.003));
#588=CARTESIAN_POINT('',(0.0109696551146029,-0.019,-0.003));
#589=CARTESIAN_POINT('',(0.0109696551146029,-0.019,-0.003));
#590=CARTESIAN_POINT('',(0.0094696551146029,-0.019,-0.003));
#591=CARTESIAN_POINT('',(-1.38777878078145E-17,3.46944695195361E-18,-0.003));
#592=CARTESIAN_POINT('',(-0.0109696551146029,-0.019,-0.003));
#593=CARTESIAN_POINT('',(-0.0109696551146029,-0.019,-0.003));
#594=CARTESIAN_POINT('',(-0.0124696551146029,-0.019,-0.003));
#595=CARTESIAN_POINT('',(-1.38777878078145E-17,3.46944695195361E-18,-0.003));
#596=CARTESIAN_POINT('',(-0.0219393102292058,1.50704101975485E-17,-0.003));
#597=CARTESIAN_POINT('',(-0.0219393102292058,1.50704101975485E-17,-0.003));
#598=CARTESIAN_POINT('',(-0.0234393102292058,1.50704101975485E-17,-0.003));
#599=CARTESIAN_POINT('',(-1.38777878078145E-17,3.46944695195361E-18,-0.003));
#600=MECHANICAL_DESIGN_GEOMETRIC_PRESENTATION_REPRESENTATION('',(#242),
#601);
#601=(
GEOMETRIC_REPRESENTATION_CONTEXT(3)
GLOBAL_UNCERTAINTY_ASSIGNED_CONTEXT((#602))
GLOBAL_UNIT_ASSIGNED_CONTEXT((#605,#604,#603))
REPRESENTATION_CONTEXT('Windmill Head Cover','TOP_LEVEL_ASSEMBLY_PART')
);
#602=UNCERTAINTY_MEASURE_WITH_UNIT(LENGTH_MEASURE(1.E-8),#605,
'DISTANCE_ACCURACY_VALUE','Maximum Tolerance applied to model');
#603=(
NAMED_UNIT(*)
SI_UNIT($,.STERADIAN.)
SOLID_ANGLE_UNIT()
);
#604=(
NAMED_UNIT(*)
PLANE_ANGLE_UNIT()
SI_UNIT($,.RADIAN.)
);
#605=(
LENGTH_UNIT()
NAMED_UNIT(*)
SI_UNIT($,.METRE.)
);
#606=PRODUCT_DEFINITION_SHAPE('','',#607);
#607=PRODUCT_DEFINITION('','',#609,#608);
#608=PRODUCT_DEFINITION_CONTEXT('',#615,'design');
#609=PRODUCT_DEFINITION_FORMATION_WITH_SPECIFIED_SOURCE('','',#611,
 .NOT_KNOWN.);
#610=PRODUCT_RELATED_PRODUCT_CATEGORY('','',(#611));
#611=PRODUCT('Windmill Head Cover','Windmill Head Cover',
'Windmill Head Cover',(#613));
#612=PRODUCT_CATEGORY('','');
#613=PRODUCT_CONTEXT('',#615,'mechanical');
#614=APPLICATION_PROTOCOL_DEFINITION('international standard',
'automotive_design',2010,#615);
#615=APPLICATION_CONTEXT(
'core data for automotive mechanical design processes');
ENDSEC;
END-ISO-10303-21;
